<svg xmlns="http://www.w3.org/2000/svg" xmlns:xlink="http://www.w3.org/1999/xlink" viewBox="0 0 622 622"><defs><style>.cls-1{fill:#fff;}.cls-2{fill:#808c7b;}.cls-3{fill:#736357;}.cls-4{mask:url(#mask);}.cls-5{fill:#333;}.cls-6{fill:#999;}.cls-7{fill:#231815;}.cls-8{fill:#bf3b5e;}.cls-9{fill:#41698c;}.cls-10{fill:#2c6b72;}.cls-11{fill:#666;}.cls-12{fill:#b3b3b3;}.cls-13{fill:#bdccd4;}.cls-14{fill:#ccc;}</style><mask id="mask" x="6.29" y="14.8" width="600.91" height="592.41" maskUnits="userSpaceOnUse"><circle class="cls-1" cx="311" cy="311" r="296.2"/></mask></defs><title>資產 8</title><g id="圖層_2" data-name="圖層 2"><g id="圖層_2-2" data-name="圖層 2"><circle class="cls-2" cx="311" cy="311" r="311"/><circle class="cls-3" cx="311" cy="311" r="296.2"/><g class="cls-4"><path class="cls-5" d="M153.37,165.24a32.45,32.45,0,0,1,40,40.23,71.24,71.24,0,0,0,15.35,4.17,32.46,32.46,0,0,1,54.86-14.55,70.77,70.77,0,0,0,11.27-11.22A32.44,32.44,0,0,1,289.7,129.1a71.24,71.24,0,0,0-4.08-15.37,32.46,32.46,0,0,1-40-40.23,70.43,70.43,0,0,0-15.34-4.17A32.45,32.45,0,0,1,175.4,83.87a71.2,71.2,0,0,0-11.27,11.22,32.46,32.46,0,0,1-14.83,54.78,72,72,0,0,0,1.61,7.8A69.72,69.72,0,0,0,153.37,165.24Zm57.86-56.63a32.12,32.12,0,1,1-22.82,39.28A32.13,32.13,0,0,1,211.23,108.61Zm8.33-7.28a38.5,38.5,0,1,0,38.5,38.5A38.5,38.5,0,0,0,219.56,101.33Zm-.26,64.42a26.17,26.17,0,1,1,26.17-26.17A26.17,26.17,0,0,1,219.3,165.75Z"/><path class="cls-5" d="M73,378.84a51,51,0,0,1,89.21.23,111.1,111.1,0,0,0,21.69-12.42,51,51,0,0,1,44.82-77.16,111.68,111.68,0,0,0,0-25,51,51,0,0,1-44.4-77.38,112.85,112.85,0,0,0-21.62-12.56,51,51,0,0,1-89.21-.23,111.1,111.1,0,0,0-21.69,12.42A51,51,0,0,1,7,263.91a111.68,111.68,0,0,0,0,25,51,51,0,0,1,44.4,77.38A112.85,112.85,0,0,0,73,378.84Zm1.37-127.26a50.5,50.5,0,1,1,18.3,69A50.49,50.49,0,0,1,74.36,251.58Zm43.2-13.25a38.5,38.5,0,1,0,38.5,38.5A38.5,38.5,0,0,0,117.56,238.33Zm-.26,64.42a26.17,26.17,0,1,1,26.17-26.17A26.17,26.17,0,0,1,117.3,302.75Z"/><rect class="cls-6" x="254.31" y="103.59" width="325" height="255.74" rx="12"/><rect class="cls-7" x="266.31" y="144.29" width="301" height="205.71" rx="8.24"/><circle class="cls-8" cx="274.73" cy="122.24" r="9.18"/><circle class="cls-9" cx="303.17" cy="122.24" r="9.18"/><circle class="cls-10" cx="331.6" cy="122.24" r="9.18"/><rect class="cls-11" x="393.42" y="116.02" width="177.6" height="13.02" rx="6.51"/><rect class="cls-11" x="366.19" y="116.02" width="21.31" height="13.02" rx="6.51"/><rect class="cls-11" x="362.72" y="239.7" width="107.7" height="14.33" rx="7.17" transform="translate(812.08 -32.51) rotate(114.11)"/><path class="cls-11" d="M510.23,244.39l-48-47.95a3.42,3.42,0,0,0-4.83,0l-3.88,3.88a3.43,3.43,0,0,0,0,4.84l41.7,41.69-41.7,41.7a3.43,3.43,0,0,0,0,4.84l3.88,3.88a3.42,3.42,0,0,0,4.83,0l48-47.95a3.54,3.54,0,0,0,0-4.93Z"/><path class="cls-11" d="M323.38,244.39l47.95-47.95a3.42,3.42,0,0,1,4.83,0l3.88,3.88a3.43,3.43,0,0,1,0,4.84l-41.69,41.69L380,288.55a3.43,3.43,0,0,1,0,4.84l-3.88,3.88a3.42,3.42,0,0,1-4.83,0l-47.95-47.95a3.54,3.54,0,0,1,0-4.93Z"/><rect class="cls-12" x="74.81" y="393.33" width="382" height="160.72" rx="12"/><rect x="127.6" y="412.74" width="17.08" height="17.08"/><rect x="151.15" y="412.74" width="17.08" height="17.08"/><rect x="174.71" y="412.74" width="17.08" height="17.08"/><rect x="198.26" y="412.74" width="17.08" height="17.08"/><rect x="95.77" y="436.03" width="17.08" height="17.08"/><rect x="119.6" y="436.03" width="17.08" height="17.08"/><rect x="143.43" y="436.03" width="17.08" height="17.08"/><rect x="167.26" y="436.03" width="17.08" height="17.08"/><rect x="191.08" y="436.03" width="17.08" height="17.08"/><rect x="214.91" y="436.03" width="17.08" height="17.08"/><rect x="238.74" y="436.03" width="17.08" height="17.08"/><rect x="262.57" y="436.03" width="17.08" height="17.08"/><rect x="286.4" y="436.03" width="17.08" height="17.08"/><rect x="310.23" y="436.03" width="17.08" height="17.08"/><rect x="334.06" y="436.03" width="17.08" height="17.08"/><rect x="357.89" y="436.03" width="17.08" height="17.08"/><rect x="381.71" y="436.03" width="17.08" height="17.08"/><rect x="405.54" y="436.03" width="17.08" height="17.08"/><rect x="429.37" y="436.03" width="17.08" height="17.08"/><rect x="92.66" y="477.96" width="17.08" height="17.08"/><rect x="116.49" y="477.96" width="17.08" height="17.08"/><rect x="140.32" y="477.96" width="17.08" height="17.08"/><rect x="164.15" y="477.96" width="17.08" height="17.08"/><rect x="187.98" y="477.96" width="17.08" height="17.08"/><rect x="211.81" y="477.96" width="17.08" height="17.08"/><rect x="235.64" y="477.96" width="17.08" height="17.08"/><rect x="259.47" y="477.96" width="17.08" height="17.08"/><rect x="283.29" y="477.96" width="17.08" height="17.08"/><rect x="307.12" y="477.96" width="17.08" height="17.08"/><rect x="330.95" y="477.96" width="17.08" height="17.08"/><rect x="354.78" y="477.96" width="17.08" height="17.08"/><rect x="378.61" y="477.96" width="17.08" height="17.08"/><rect x="402.44" y="477.96" width="17.08" height="17.08"/><rect x="426.27" y="477.96" width="17.08" height="17.08"/><rect x="105.09" y="498.92" width="17.08" height="17.08"/><rect x="128.92" y="498.92" width="17.08" height="17.08"/><rect x="152.74" y="498.92" width="17.08" height="17.08"/><rect x="176.57" y="498.92" width="17.08" height="17.08"/><rect x="200.4" y="498.92" width="17.08" height="17.08"/><rect x="228.11" y="498.92" width="103.69" height="17.08"/><rect x="343.37" y="498.92" width="17.08" height="17.08"/><rect x="367.2" y="498.92" width="17.08" height="17.08"/><rect x="391.03" y="498.92" width="17.08" height="17.08"/><rect x="414.86" y="498.92" width="17.08" height="17.08"/><rect x="105.09" y="457" width="17.08" height="17.08"/><rect x="128.94" y="457" width="17.08" height="17.08"/><rect x="152.79" y="457" width="17.08" height="17.08"/><rect x="176.64" y="457" width="17.08" height="17.08"/><rect x="200.49" y="457" width="17.08" height="17.08"/><rect x="224.34" y="457" width="17.08" height="17.08"/><rect x="248.19" y="457" width="17.08" height="17.08"/><rect x="272.04" y="457" width="17.08" height="17.08"/><rect x="295.89" y="457" width="17.08" height="17.08"/><rect x="319.74" y="457" width="17.08" height="17.08"/><rect x="343.59" y="457" width="17.08" height="17.08"/><rect x="367.44" y="457" width="17.08" height="17.08"/><rect x="391.29" y="457" width="17.08" height="17.08"/><rect x="415.14" y="457" width="17.08" height="17.08"/><rect x="236.3" y="412.74" width="17.08" height="17.08"/><rect x="259.85" y="412.74" width="17.08" height="17.08"/><rect x="283.4" y="412.74" width="17.08" height="17.08"/><rect x="306.96" y="412.74" width="17.08" height="17.08"/><rect x="350.44" y="412.74" width="17.08" height="17.08"/><rect x="373.99" y="412.74" width="17.08" height="17.08"/><rect x="397.54" y="412.74" width="17.08" height="17.08"/><rect x="421.09" y="412.74" width="17.08" height="17.08"/><rect x="87.23" y="412.74" width="17.08" height="17.08"/><path class="cls-5" d="M507.59,371.33h6.92a32.61,32.61,0,0,1,32.61,32.61v63A36.07,36.07,0,0,1,511.06,503h0A36.07,36.07,0,0,1,475,467v-63A32.61,32.61,0,0,1,507.59,371.33Z"/><rect class="cls-13" x="507.53" y="384.53" width="7.37" height="38.99" rx="3.68"/><rect class="cls-14" x="190.88" y="226.33" width="83.18" height="152" rx="6.86"/><rect class="cls-7" x="195.72" y="233.27" width="73.49" height="122.99" rx="3.62"/><circle class="cls-5" cx="232.56" cy="366.83" r="6.5"/></g></g></g></svg>