<svg xmlns="http://www.w3.org/2000/svg" xmlns:xlink="http://www.w3.org/1999/xlink" viewBox="0 0 622 622"><defs><style>.cls-1{fill:#f2f2f2;}.cls-2{fill:#808c7b;}.cls-3{fill:#c7b299;}.cls-4{mask:url(#mask);}.cls-5{fill:#666;}.cls-6{fill:#999;}.cls-7{fill:#e6e6e6;}.cls-8{fill:#4d4d4d;}.cls-9{fill:#f25e5e;}.cls-10{fill:#2c6b72;}.cls-11{fill:#f29341;}.cls-12{fill:#f2cc5c;}.cls-13{fill:#f2f1ea;}.cls-14{fill:#a5754a;}.cls-15{fill:#59518c;}.cls-16{fill:#41698c;}</style><mask id="mask" x="14.8" y="14.8" width="592.41" height="592.41" maskUnits="userSpaceOnUse"><circle class="cls-1" cx="311" cy="311" r="296.2"/></mask></defs><title>資產 9</title><g id="圖層_2" data-name="圖層 2"><g id="圖層_3" data-name="圖層 3"><circle class="cls-2" cx="311" cy="311" r="311"/><circle class="cls-3" cx="311" cy="311" r="296.2"/><g class="cls-4"><polygon class="cls-5" points="359.64 385.33 282.61 385.33 297.67 273.57 344.57 273.57 359.64 385.33"/><rect class="cls-6" x="118.31" y="38.33" width="404.89" height="255.19" rx="11.97"/><rect class="cls-7" x="133.26" y="50.04" width="374.99" height="234.18" rx="8.22"/><path class="cls-5" d="M427.87,50h80.36a0,0,0,0,1,0,0V284.22a0,0,0,0,1,0,0H427.87a8.22,8.22,0,0,1-8.22-8.22V58.27A8.22,8.22,0,0,1,427.87,50Z" transform="translate(927.87 334.26) rotate(-180)"/><path class="cls-5" d="M141.48,50H164a0,0,0,0,1,0,0V284.22a0,0,0,0,1,0,0H141.48a8.22,8.22,0,0,1-8.22-8.22V58.27A8.22,8.22,0,0,1,141.48,50Z"/><path class="cls-8" d="M141.16,50H500a8.27,8.27,0,0,1,8.27,8.27V93a0,0,0,0,1,0,0h-375a0,0,0,0,1,0,0v-35A7.9,7.9,0,0,1,141.16,50Z"/><rect class="cls-8" x="430.08" y="101.93" width="69.17" height="42.91"/><rect class="cls-8" x="430.08" y="151.82" width="69.17" height="121.74"/><rect x="219.84" y="377.34" width="201.57" height="18.96" rx="9.48"/><circle class="cls-9" cx="282.21" cy="177.27" r="72.35"/><rect class="cls-10" x="311.64" y="182.76" width="69.85" height="69.85"/><polygon class="cls-11" points="311.64 134.86 268.44 209.7 354.85 209.7 311.64 134.86"/><rect class="cls-12" x="326.26" y="226.42" width="63.53" height="442.15" transform="translate(-195.55 595.76) rotate(-66.33)"/><rect x="175.73" y="334.15" width="2.63" height="14.44" transform="translate(151.93 -42.36) rotate(23.67)"/><rect x="165.58" y="330.49" width="2.63" height="31.77" transform="translate(153.08 -37.86) rotate(23.67)"/><rect x="182.4" y="337.07" width="2.63" height="14.44" transform="translate(153.66 -44.79) rotate(23.67)"/><rect x="189.08" y="340" width="2.63" height="14.44" transform="translate(155.4 -47.22) rotate(23.67)"/><rect x="195.75" y="342.92" width="2.63" height="14.44" transform="translate(157.14 -49.66) rotate(23.67)"/><rect x="209.1" y="348.77" width="2.63" height="14.44" transform="translate(160.61 -54.52) rotate(23.67)"/><rect x="198.95" y="345.12" width="2.63" height="31.77" transform="translate(161.76 -50.03) rotate(23.67)"/><rect x="215.78" y="351.7" width="2.63" height="14.44" transform="translate(162.34 -56.96) rotate(23.67)"/><rect x="222.45" y="354.62" width="2.63" height="14.44" transform="translate(164.08 -59.39) rotate(23.67)"/><rect x="229.13" y="357.55" width="2.63" height="14.44" transform="translate(165.81 -61.82) rotate(23.67)"/><rect x="242.47" y="363.4" width="2.63" height="14.44" transform="translate(169.29 -66.69) rotate(23.67)"/><rect x="232.32" y="359.75" width="2.63" height="31.77" transform="translate(170.44 -62.19) rotate(23.67)"/><rect x="249.15" y="366.33" width="2.63" height="14.44" transform="translate(171.02 -69.12) rotate(23.67)"/><rect x="255.82" y="369.25" width="2.63" height="14.44" transform="translate(172.76 -71.56) rotate(23.67)"/><rect x="262.5" y="372.18" width="2.63" height="14.44" transform="translate(174.49 -73.99) rotate(23.67)"/><rect x="275.85" y="378.03" width="2.63" height="14.44" transform="translate(177.96 -78.86) rotate(23.67)"/><rect x="265.69" y="374.37" width="2.63" height="31.77" transform="translate(179.12 -74.36) rotate(23.67)"/><rect x="282.52" y="380.95" width="2.63" height="14.44" transform="translate(179.7 -81.29) rotate(23.67)"/><rect x="289.19" y="383.88" width="2.63" height="14.44" transform="translate(181.44 -83.72) rotate(23.67)"/><rect x="295.87" y="386.8" width="2.63" height="14.44" transform="translate(183.17 -86.16) rotate(23.67)"/><rect x="309.22" y="392.65" width="2.63" height="14.44" transform="translate(186.64 -91.02) rotate(23.67)"/><rect x="299.07" y="389" width="2.63" height="31.77" transform="translate(187.8 -86.53) rotate(23.67)"/><rect x="315.89" y="395.58" width="2.63" height="14.44" transform="translate(188.38 -93.46) rotate(23.67)"/><rect x="322.57" y="398.5" width="2.63" height="14.44" transform="translate(190.11 -95.89) rotate(23.67)"/><rect x="329.24" y="401.43" width="2.63" height="14.44" transform="translate(191.85 -98.32) rotate(23.67)"/><rect x="342.59" y="407.28" width="2.63" height="14.44" transform="translate(195.32 -103.19) rotate(23.67)"/><rect x="332.44" y="403.63" width="2.63" height="31.77" transform="translate(196.48 -98.69) rotate(23.67)"/><rect x="349.26" y="410.21" width="2.63" height="14.44" transform="translate(197.06 -105.62) rotate(23.67)"/><rect x="355.94" y="413.13" width="2.63" height="14.44" transform="translate(198.79 -108.06) rotate(23.67)"/><rect x="362.61" y="416.06" width="2.63" height="14.44" transform="translate(200.53 -110.49) rotate(23.67)"/><rect x="375.46" y="421.69" width="2.63" height="14.44" transform="translate(203.87 -115.17) rotate(23.67)"/><rect x="365.3" y="418.03" width="2.63" height="31.77" transform="translate(205.03 -110.67) rotate(23.67)"/><rect x="382.13" y="424.61" width="2.63" height="14.44" transform="translate(205.6 -117.6) rotate(23.67)"/><rect x="388.8" y="427.54" width="2.63" height="14.44" transform="translate(207.34 -120.04) rotate(23.67)"/><rect x="395.48" y="430.46" width="2.63" height="14.44" transform="translate(209.08 -122.47) rotate(23.67)"/><rect x="408.83" y="436.31" width="2.63" height="14.44" transform="translate(212.55 -127.34) rotate(23.67)"/><rect x="398.68" y="432.66" width="2.63" height="31.77" transform="translate(213.7 -122.84) rotate(23.67)"/><rect x="415.5" y="439.24" width="2.63" height="14.44" transform="translate(214.28 -129.77) rotate(23.67)"/><rect x="422.18" y="442.16" width="2.63" height="14.44" transform="translate(216.02 -132.2) rotate(23.67)"/><rect x="428.85" y="445.09" width="2.63" height="14.44" transform="translate(217.76 -134.64) rotate(23.67)"/><rect x="442.2" y="450.94" width="2.63" height="14.44" transform="translate(221.23 -139.5) rotate(23.67)"/><rect x="432.05" y="447.29" width="2.63" height="31.77" transform="translate(222.38 -135.01) rotate(23.67)"/><rect x="448.87" y="453.87" width="2.63" height="14.44" transform="translate(222.96 -141.94) rotate(23.67)"/><rect x="455.55" y="456.79" width="2.63" height="14.44" transform="translate(224.7 -144.37) rotate(23.67)"/><rect x="462.22" y="459.72" width="2.63" height="14.44" transform="translate(226.43 -146.8) rotate(23.67)"/><rect x="475.57" y="465.57" width="2.63" height="14.44" transform="translate(229.91 -151.67) rotate(23.67)"/><rect x="465.42" y="461.91" width="2.63" height="31.77" transform="translate(231.06 -147.17) rotate(23.67)"/><rect x="482.25" y="468.49" width="2.63" height="14.44" transform="translate(231.64 -154.1) rotate(23.67)"/><rect x="488.92" y="471.42" width="2.63" height="14.44" transform="translate(233.38 -156.54) rotate(23.67)"/><rect x="495.59" y="474.34" width="2.63" height="14.44" transform="translate(235.11 -158.97) rotate(23.67)"/><rect x="508.94" y="480.19" width="2.63" height="14.44" transform="translate(238.58 -163.84) rotate(23.67)"/><rect x="498.79" y="476.54" width="2.63" height="31.77" transform="translate(239.74 -159.34) rotate(23.67)"/><rect x="515.62" y="483.12" width="2.63" height="14.44" transform="translate(240.32 -166.27) rotate(23.67)"/><rect x="522.29" y="486.05" width="2.63" height="14.44" transform="translate(242.06 -168.7) rotate(23.67)"/><rect x="528.97" y="488.97" width="2.63" height="14.44" transform="translate(243.79 -171.14) rotate(23.67)"/><rect x="542.32" y="494.82" width="2.63" height="14.44" transform="translate(247.26 -176) rotate(23.67)"/><rect x="532.16" y="491.17" width="2.63" height="31.77" transform="translate(248.42 -171.51) rotate(23.67)"/><rect x="548.99" y="497.75" width="2.63" height="14.44" transform="translate(249 -178.44) rotate(23.67)"/><rect x="555.66" y="500.67" width="2.63" height="14.44" transform="translate(250.73 -180.87) rotate(23.67)"/><rect x="562.34" y="503.6" width="2.63" height="14.44" transform="translate(252.47 -183.3) rotate(23.67)"/><polygon class="cls-13" points="388.04 544.79 394.4 535.07 394.03 523.65 377.47 511.8 349.75 523.64 349.85 523.73 331.22 575.46 381.66 553.56 388.04 544.79"/><rect class="cls-12" x="324.96" y="401.51" width="325.05" height="14.54" transform="translate(-144.17 484.64) rotate(-46.83)"/><polygon class="cls-11" points="381.52 553.71 381.64 532.33 604.03 295.26 603.91 316.64 381.52 553.71"/><polygon class="cls-11" points="349.62 523.78 370.95 522.3 593.34 285.23 572.01 286.72 349.62 523.78"/><polygon points="336.69 560.28 331.22 575.46 346.02 569.03 336.69 560.28"/><path class="cls-14" d="M211.89,512.5c-6.08-1.61-12.06-3.83-18.24-4.71-8.9-1.26-16.26,2.34-21.41,9.73s-5.69,15.4-1.82,23.52c3.64,7.65,3.67,15.15-.55,22.49a22.77,22.77,0,0,1-26.45,10.64c-45.79-13.23-77.89-42-94.55-86.58-35.18-94.16,39.2-194.53,139.42-187.26,55,4,96.83,30.8,122.2,80.55,12.95,25.4,15.41,52.48,7.94,80.18-10.24,38-48.35,62.44-87.13,55.78-6.51-1.12-12.82-3.33-19.23-5Zm-53.69-143a23.26,23.26,0,1,0-16.38-28.64A23.27,23.27,0,0,0,158.2,369.46Zm75,20a23.26,23.26,0,1,0-16.39-28.64A23.26,23.26,0,0,0,233.15,389.43Zm-135.83,28a23.26,23.26,0,1,0-16.46-28.59A23.26,23.26,0,0,0,97.32,417.45Zm193.34,27.44a23.26,23.26,0,1,0-28.6,16.45A23.22,23.22,0,0,0,290.66,444.89Z"/><path class="cls-15" d="M158.2,369.46a23.26,23.26,0,1,1,28.48-16.3A23.26,23.26,0,0,1,158.2,369.46Z"/><path class="cls-10" d="M233.15,389.43a23.26,23.26,0,1,1,28.47-16.3A23.26,23.26,0,0,1,233.15,389.43Z"/><path class="cls-16" d="M97.32,417.45a23.26,23.26,0,1,1,28.43-16.38A23.26,23.26,0,0,1,97.32,417.45Z"/><path class="cls-9" d="M290.66,444.89a23.26,23.26,0,1,1-16.36-28.43A23.25,23.25,0,0,1,290.66,444.89Z"/></g></g></g></svg>