<svg xmlns="http://www.w3.org/2000/svg" viewBox="0 0 1336 617.26"><defs><style>.cls-1{fill:#fff;}</style></defs><title>資產 1</title><g id="圖層_2" data-name="圖層 2"><g id="圖層_1-2" data-name="圖層 1"><g id="圖層_1-2-2" data-name="圖層 1-2"><path class="cls-1" d="M727.71,617.26c-11.42-6.75-12.87-18.75-13.5-29.77-1.08-18.92-.25-38,.08-56.94.21-12.65,1.12-25.2-.82-37.91-1-6.61.9-13.74,1.86-20.58,3.76-26.92,8.68-53.72,11.27-80.75,3.52-36.59,5.17-73.37,7.89-110,1.24-16.62,1.56-33.14-4.14-49a91.13,91.13,0,0,0-9.46-19.51c-7.93-12-26-14.5-37.57-5.92-5.24,3.91-7.1,9.52-7.69,15.73-1.42,15.23-3,30.45-4.25,45.7-1.42,17.55-11.17,28.31-27.24,33.84-13.15,4.53-26.77,6.91-40.63,4.69-44-7-67.87-49.44-51.53-90.73a39.9,39.9,0,0,0,3.18-12.91c.31-8.51-6.08-13.48-14.33-11.54-3.25.77-6.29,2.49-9.37,3.9-7,3.22-13.81,7-21,9.67-11.43,4.23-21.95,1.91-30.94-6.42a79.37,79.37,0,0,1-9-9.37c-9.36-12.11-21.5-16.57-36.42-13.9-17.91,3.2-34.24,9.76-46.91,23.34-15.81,16.94-19.39,36.63-10.92,58,4.47,11.26,7.83,22.42,7,34.6a13.44,13.44,0,0,0,.35,4.15c4,15.47-.31,28.92-10.82,40.27-6.26,6.76-13,13.36-20.58,18.55-21.46,14.75-46.94,2.91-50.74-22.83-2.27-15.37,1.9-29.4,7.74-43.2,3.55-8.39,7.46-16.64,10.84-25.1,4.76-11.93,6.84-24.07,1.47-36.48a5.59,5.59,0,0,1-.31-3.16c2.7-12.73-1-24.21-7.06-35.12-3.14-5.66-6.73-11.1-10.29-16.52-2.92-4.46-7.35-7.14-12.55-6.59-7.32.76-15,1.42-21.7,4.1-18.81,7.53-38.24,11-58.33,11.59-10.82.32-21.64.72-32.47.92-3.35,0-5.56,1.22-6.72,4.44-1.67,4.65-3.54,9.22-5.19,13.88-5.76,16.27-24.55,27.26-40.93,23.87-9.17-1.89-14.32-7.6-14.86-17-.63-11-1.56-21.91-6.94-31.87-7.78-14.4-20.33-23-35.19-28.61-5.62-2.13-11.39-4.26-17.28-5.21-12.34-2-21.11-8.75-28.29-18.49C12.88,108.65,4.14,93.51,1,75.68c-.09-.51-.62-1-.95-1.42V60.33c.32-.48.83-.93.93-1.46,2.93-15.69,12.22-26.69,25.6-34.66,16.64-9.93,35-13.88,54-14.76,46.55-2.16,92.66.47,138.07,12.09a233.44,233.44,0,0,0,86.08,5.54A304,304,0,0,1,375,26.74c16.42,1.84,32.86,3.94,49.34,4.6,26.52,1.06,52.76-2.57,78.87-6.83C544.56,17.77,585.7,9.92,627.59,7c38.56-2.66,77-2.36,115.18,3.59,37.29,5.82,74.54,11.27,112.3,12.89a1056.2,1056.2,0,0,0,141.31-3.66c32.5-3,64.91-6,97.62-5.28,39.48.89,78.85-.73,117.78-8.1,10.1-1.91,20.11-4.29,30.16-6.46h17.64a24.5,24.5,0,0,0,3.4.93c20,2.61,38.45,9.51,54.75,21.32,23.43,17,25.63,49.58-1,66.12-15.79,9.79-30.35,21.35-42.45,35.69-13.51,16-21.44,34.17-19.19,55.39,2.73,25.64,6.44,51.18,9.64,76.77,2,15.77,5.45,31.51,3.2,47.49a214.69,214.69,0,0,1-5.93,28c-2.23,7.93-9.34,11.46-18.47,10.47-8.47-.92-12.65-5.08-13.66-14.18-.86-7.83-1.8-15.69-1.93-23.55-.29-16.83-.55-33.69,0-50.51.7-20.08,2.34-40.11,3.48-60.17.86-15.11,2-30.19-1.14-45.27-4.1-19.37-15.56-27.59-35.11-24.74-14.44,2.11-24.54,8.84-27.21,24.14a32.43,32.43,0,0,1-2,6.18,14.36,14.36,0,0,1-8.91,8.85c-17.24,6-31.29-5.43-28.78-23.38,0-.15.06-.3.07-.46,1.06-9.28-1.86-17-9.92-21.91-15.65-9.48-32.78-12.34-49.82-5.69-21.14,8.26-29.74,26.76-33.61,47.71-1.6,8.72,1.13,17.08,4,25.37,5,14.5,3.35,28.42-5.49,41.08-6.19,8.89-15.22,11.62-25.67,10.31s-18.05-6-21.45-16.41c-1.43-4.41-3.15-8.72-4.62-13.11-4.77-14.2-4.64-27.9,4-40.88a25.66,25.66,0,0,0,2.95-7.74c1.68-6.48-.36-11.75-6-15.08a37,37,0,0,0-22.28-5c-8.77.76-15.13,5.43-18.3,13.65a95.64,95.64,0,0,0-3.75,14.27C937,172,933.67,176.38,927.21,178c-6.19,1.55-11-.35-15.26-5.15-7.66-8.62-6.08-9.3-19.71-3.91a29,29,0,0,0-7.08,4.35c-9.84,7.76-13.34,19-16.37,30.45-7.67,29-5.19,58,.64,86.85,5.33,26.34,11.58,52.49,17.37,78.73,2.61,11.77,5.06,23.54,4.24,35.77-1.32,19.65-11,32.92-28.67,36.88a66.15,66.15,0,0,1-22,1.08c-17.73-2.14-25.54-11.61-26.1-29.55-.33-10.66-.74-21.32-1.43-32a189.42,189.42,0,0,1,2.7-45.22c2.49-14.13,4.63-28.36,6-42.64,1.68-18,2.4-36.08,3.48-54.13.33-5.54,1.48-11.27.48-16.58-1.28-6.75-4.15-13.24-6.7-19.7-3.33-8.42-10.05-11.57-18.81-11.41s-14.76,4.17-18,12.12c-1.76,4.27-3,8.76-4.35,13.19a510.76,510.76,0,0,0-21.64,113.56c-2,27.42-2.91,55-2.8,82.47.13,30,2.36,59.93,3,89.91.63,29.07.44,58.15.48,87.23a23.11,23.11,0,0,1-1.65,7.63c-3.35,9.24-8.86,16.49-18.85,19.3Z"/></g></g></g></svg>