<svg xmlns="http://www.w3.org/2000/svg" viewBox="0 0 192.34 36.09"><defs><style>.cls-1{fill:#231815;}</style></defs><title>資產 2</title><g id="圖層_2" data-name="圖層 2"><g id="圖層_2-2" data-name="圖層 2"><path class="cls-1" d="M139.7,2.75a4.66,4.66,0,0,0,1.53,2.78,5.13,5.13,0,0,0,.69.56,5.82,5.82,0,0,0-.81.37,4.55,4.55,0,0,0-2.23,2.34c-.14.43.63.44.82.79s-.2,1,.27,1.12a4.61,4.61,0,0,0,3.12-.59,6.89,6.89,0,0,0,.75-.48,6.73,6.73,0,0,0,.09.88,4.57,4.57,0,0,0,1.55,2.84c.36.27.61-.46,1-.53s.9.5,1.15.09a4.58,4.58,0,0,0,.4-3.15,5.69,5.69,0,0,0-.22-.86,5.57,5.57,0,0,0,.87.18,4.51,4.51,0,0,0,3.17-.59c.37-.26-.25-.72-.19-1.11s.75-.71.44-1.07A4.62,4.62,0,0,0,149.23,5a6.83,6.83,0,0,0-.89,0,5.72,5.72,0,0,0,.44-.77,4.56,4.56,0,0,0,.42-3.2c-.14-.44-.76,0-1.12-.16s-.44-.93-.88-.75A4.61,4.61,0,0,0,145,2.34a5.66,5.66,0,0,0-.32.83,6.17,6.17,0,0,0-.6-.66,4.53,4.53,0,0,0-2.91-1.39c-.46,0-.23.73-.5,1S139.67,2.27,139.7,2.75Zm5.65,3.73.05,0a.43.43,0,0,1,0,0v.06h-.11l0,0,0,0,0,0,0,0Z"/><path class="cls-1" d="M93.51,19.51a3.2,3.2,0,0,0,1,1.93q.24.21.48.39a3.1,3.1,0,0,0-.56.25,3.2,3.2,0,0,0-1.54,1.62c-.1.3.43.3.56.54s-.13.7.19.78a3.2,3.2,0,0,0,2.16-.41,3.84,3.84,0,0,0,.52-.33c0,.2,0,.4.06.61a3.2,3.2,0,0,0,1.07,2c.26.18.42-.32.69-.37s.63.34.8.06a3.16,3.16,0,0,0,.28-2.18,3.39,3.39,0,0,0-.16-.59,5.49,5.49,0,0,0,.61.12,3.09,3.09,0,0,0,2.19-.41c.26-.18-.17-.5-.13-.77s.52-.49.3-.74a3.21,3.21,0,0,0-2-.94l-.62,0a4.6,4.6,0,0,0,.31-.53,3.15,3.15,0,0,0,.29-2.22c-.1-.3-.53,0-.78-.11s-.3-.65-.61-.52a3.23,3.23,0,0,0-1.5,1.6,4.53,4.53,0,0,0-.23.57,4.28,4.28,0,0,0-.41-.45,3.14,3.14,0,0,0-2-1c-.31,0-.15.5-.34.7S93.48,19.18,93.51,19.51Zm3.9,2.58,0,0s0,0,0,0v0h-.07s0,0,0,0l0,0,0,0s0,0,0,0Z"/><path class="cls-1" d="M126.77,19.59a4.63,4.63,0,0,0,2.58,1.84,5.72,5.72,0,0,0,.86.22,6.27,6.27,0,0,0-.57.67,4.59,4.59,0,0,0-1,3.08c.06.45.75.12,1.07.36s.26,1,.74.9A4.65,4.65,0,0,0,133,24.77a5.58,5.58,0,0,0,.47-.76,5.58,5.58,0,0,0,.47.76,4.55,4.55,0,0,0,2.61,1.9c.45.08.35-.68.67-.91s1,.06,1.09-.42a4.69,4.69,0,0,0-1-3,6.34,6.34,0,0,0-.58-.67,5.43,5.43,0,0,0,.86-.22,4.57,4.57,0,0,0,2.62-1.9c.21-.4-.54-.54-.66-.92s.37-1-.07-1.16a4.64,4.64,0,0,0-3.17,0,6.11,6.11,0,0,0-.82.34,6.44,6.44,0,0,0,.06-.89,4.57,4.57,0,0,0-1-3.07c-.32-.33-.69.34-1.08.34s-.8-.65-1.12-.29a4.6,4.6,0,0,0-1,3,6.44,6.44,0,0,0,.06.89,6.71,6.71,0,0,0-.82-.34,4.55,4.55,0,0,0-3.23,0c-.41.2.11.75,0,1.13S126.53,19.17,126.77,19.59Zm6.71.92h.05s0,0,0,0a.08.08,0,0,0,0,.05l0,0,0,0,0,0-.05,0s0,0,0-.05a.07.07,0,0,0,0,0Z"/><path class="cls-1" d="M98.77,6.59a4.63,4.63,0,0,0,2.58,1.84,5.72,5.72,0,0,0,.86.22,6.27,6.27,0,0,0-.57.67,4.59,4.59,0,0,0-1,3.08c.06.45.75.12,1.07.36s.26,1,.74.9A4.65,4.65,0,0,0,105,11.77a5.58,5.58,0,0,0,.47-.76,5.58,5.58,0,0,0,.47.76,4.55,4.55,0,0,0,2.61,1.9c.45.08.35-.68.67-.91s1,.06,1.09-.42a4.69,4.69,0,0,0-1-3,6.34,6.34,0,0,0-.58-.67,5.43,5.43,0,0,0,.86-.22,4.57,4.57,0,0,0,2.62-1.9c.21-.4-.54-.54-.66-.92s.37-1-.07-1.16a4.64,4.64,0,0,0-3.17,0,6.11,6.11,0,0,0-.82.34,6.44,6.44,0,0,0,.06-.89,4.57,4.57,0,0,0-1-3.07c-.32-.33-.69.34-1.08.34s-.8-.65-1.12-.29a4.6,4.6,0,0,0-1,3,6.44,6.44,0,0,0,.06.89,6.71,6.71,0,0,0-.82-.34,4.55,4.55,0,0,0-3.23,0c-.41.2.11.75,0,1.13S98.53,6.17,98.77,6.59Zm6.71.92h0s0,0,0,0a.08.08,0,0,0,0,.05l0,0,0,0s0,0,0,0l0,0s0,0,0-.05a.07.07,0,0,0,0,0Z"/><path class="cls-1" d="M152.42,26.64a3.14,3.14,0,0,0,2.07.6,5.61,5.61,0,0,0,.59-.06,4.63,4.63,0,0,0-.21.56,3.16,3.16,0,0,0,0,2.19c.14.28.52-.09.77,0s.39.58.67.41a3.08,3.08,0,0,0,1.21-1.78,4.49,4.49,0,0,0,.13-.59,6,6,0,0,0,.47.38,3.07,3.07,0,0,0,2.1.62c.31,0,.07-.51.23-.73s.67-.19.59-.51a3.09,3.09,0,0,0-1.31-1.7,4.74,4.74,0,0,0-.52-.31,3.08,3.08,0,0,0,.5-.33,3,3,0,0,0,1.24-1.8c.05-.3-.46-.23-.62-.44s0-.7-.31-.73a3.18,3.18,0,0,0-2,.73,3.55,3.55,0,0,0-.45.4,4.18,4.18,0,0,0-.16-.58,3.08,3.08,0,0,0-1.33-1.74c-.27-.14-.36.37-.61.46s-.66-.24-.79.07a3.12,3.12,0,0,0,.07,2.14,4.72,4.72,0,0,0,.24.56,3,3,0,0,0-.6,0,3.15,3.15,0,0,0-2.07.72c-.21.22.25.46.25.73S152.17,26.42,152.42,26.64Zm4.5-.92h0l0,0,0,0,0,0,0,0h-.07v-.08Z"/><path class="cls-1" d="M83.42,14.64a3.14,3.14,0,0,0,2.07.6,5.61,5.61,0,0,0,.59-.06,4.63,4.63,0,0,0-.21.56,3.16,3.16,0,0,0,0,2.19c.14.28.52-.09.77,0s.39.58.67.41a3.08,3.08,0,0,0,1.21-1.78A4.49,4.49,0,0,0,88.7,16a6,6,0,0,0,.47.38,3.07,3.07,0,0,0,2.1.62c.31,0,.07-.51.23-.73s.67-.19.59-.51A3.09,3.09,0,0,0,90.78,14a4.74,4.74,0,0,0-.52-.31,3.08,3.08,0,0,0,.5-.33A3,3,0,0,0,92,11.58c0-.3-.46-.23-.62-.44s0-.7-.31-.73a3.18,3.18,0,0,0-2,.73,3.55,3.55,0,0,0-.45.4,4.18,4.18,0,0,0-.16-.58,3.08,3.08,0,0,0-1.33-1.74c-.27-.14-.36.37-.61.46s-.66-.24-.79.07a3.12,3.12,0,0,0,.07,2.14,4.72,4.72,0,0,0,.24.56,3,3,0,0,0-.6,0,3.15,3.15,0,0,0-2.07.72c-.21.22.25.46.25.73S83.17,14.42,83.42,14.64Zm4.5-.92h0l0,0,0,0,0,0,0,0h-.07v-.08Z"/><path class="cls-1" d="M113.42,7.64a3.14,3.14,0,0,0,2.07.6,5.61,5.61,0,0,0,.59-.06,4.63,4.63,0,0,0-.21.56,3.16,3.16,0,0,0,0,2.19c.14.28.52-.09.77,0s.39.58.67.41a3.08,3.08,0,0,0,1.21-1.78A4.49,4.49,0,0,0,118.7,9a6,6,0,0,0,.47.38,3.07,3.07,0,0,0,2.1.62c.31,0,.07-.51.23-.73s.67-.19.59-.51A3.09,3.09,0,0,0,120.78,7a4.74,4.74,0,0,0-.52-.31,3.08,3.08,0,0,0,.5-.33A3,3,0,0,0,122,4.58c0-.3-.46-.23-.62-.44s0-.7-.31-.73a3.18,3.18,0,0,0-2,.73,3.55,3.55,0,0,0-.45.4,4.18,4.18,0,0,0-.16-.58,3.08,3.08,0,0,0-1.33-1.74c-.27-.14-.36.37-.61.46s-.66-.24-.79.07a3.12,3.12,0,0,0,.07,2.14,4.72,4.72,0,0,0,.24.56,3,3,0,0,0-.6,0,3.15,3.15,0,0,0-2.07.72c-.21.22.25.46.25.73S113.17,7.42,113.42,7.64Zm4.5-.92h0l0,0,0,0,0,0,0,0h-.07V6.73Z"/><path class="cls-1" d="M63,19.12l3,1.79,7.61-.6,5.57-5.37,7.6-1.43,9.54-4.92-6.72,5.55-7.43,1.75-2.46,1.69,10.46,1.69L105.38,6.81l11.08-1.13L120.27,5l4.66,1.77,14.23-.68,5.46-.74,5.66,2.08,4.36,4.42,4.65.93-5.8-.75-2.86-3.11-6.16-2.24-9.26,1.44-9.28-.21-4.65-.93L112.69,8l-7.12.76-12,9.93,7.32,2.88,9.28.22,8.8,1.7,10.24-2.78L140,20.61l10.13,1.86,6,2.74,9,2,14.54-3.34,12.69-4.47-11.52,5.95L165,29.4l-9-2-6.17-3.06-9.13-1.54-10.43,0L119.7,25.68,110.9,24l5.18,3.58,6.32,1.74,10.6-.47,4,2.93-4.49-1.43-9.1.94-9.14-2.36-5-4.91-11.11-.52-8.3-1.55-9.3-1.87L78.73,21.4l-6.09,2.73-8.27.94-10.5-5L40.3,21.24l13.64,4.62,8,5,9.64,2.52,10.9-2.29,11.81,3.49L83.52,33.1l-13,3-8.82-2.54-9.34-5.18L30.53,21.69,14.84,25.21,7.58,27.29,0,22.19V17.45l8.67,4.69,8.43-1.43L33.63,18s16.23-.87,17.89-.07,7.64,1.07,9.3,1.87Z"/></g></g></svg>