<svg xmlns="http://www.w3.org/2000/svg" viewBox="0 0 328.12 825.25"><defs><style>.cls-1{fill:#fec64e;}.cls-2{fill:#dbd0b3;}.cls-3{fill:#9d8560;}.cls-4{fill:#e1e1e4;}.cls-5{fill:#dededd;}.cls-6{fill:#ababae;}.cls-7{fill:#f6e1b0;}.cls-8{fill:#607a87;}.cls-9{fill:#9a8056;}.cls-10{fill:#f1c358;}.cls-11{fill:#aaa;}.cls-12{fill:#587582;}</style></defs><title>guitar</title><g id="圖層_2" data-name="圖層 2"><g id="圖層_1-2" data-name="圖層 1"><path class="cls-1" d="M187.73,380.84c30.06,2.37,58.06,10.07,80.24,32,13.83,13.66,20.56,30.81,22.7,49.88,2.47,22-1.66,42.91-9.37,63.51-8.85,23.67-5.11,45.85,10.56,65.7,27.26,34.53,39.36,73.82,35.59,117.44-3.84,44.36-26.63,76.4-66.54,96.21-1.49.74-2.92,1.58-4.38,2.37-1.85.72-3.72,1.41-5.56,2.15-20.18,8.21-41.22,12.54-62.9,14.16s-43.15,1.39-64.64-1.79A214.81,214.81,0,0,1,71.78,808c-19.62-9.43-37-21.69-49.9-39.61C9.72,751.49,3,732.49.91,712-3,673.66,5.61,638.21,26.4,605.8c3.14-4.89,6.82-9.44,10.28-14.13,15.07-20.43,18.74-42.58,9.73-66.47-9.33-24.72-12.84-49.94-6.47-75.88,6.5-26.47,23.49-44.35,47.72-55.59a138,138,0,0,1,53-12.82c0,.34.1.68.14,1q0,8.08,0,16.17l0,4.91c0,11.81,0,23.63-.15,35.44,0,2.38.43,4,3.23,3.67,1.38,17.52.54,35.07.45,52.61-21,6.17-39.06,27.8-41.49,49.6-3.36,30.13,12.71,56,41.53,66.81q.08,51.33.16,102.67c-7.49,0-15,.24-22.44,0-3.58-.11-4.64,1.11-4.42,4.55a107.9,107.9,0,0,1,0,12.46c-.16,3.06.92,4,4,4q42.4-.14,84.8,0c2.89,0,4.27-.65,4.1-3.87-.23-4.48-.2-9,0-13.46.13-2.93-1.07-3.69-3.8-3.65-7.64.11-15.29,0-22.94,0L183.92,611c9.07-3.19,17.35-7.91,23.89-14.9,16.65-17.81,22.13-38.76,14.78-62.12-6.1-19.36-19.08-32.7-38.65-39.15q0-26.33-.07-52.64c2.51.11,3.91-.58,3.86-3.6-.19-11.89-.15-23.78-.19-35.67V398.1l0-16.21Z"/><path class="cls-2" d="M136.66,61.84V51.13c2.07-4.22.57-9,2-13.28l0-10.76c2.2-4.24.41-8.82,1.16-13.19,1.41-1.75.69-3.83.85-5.76.41-5.11,3.09-8,8.18-8q14.91-.18,29.83,0c5.22.06,8.58,3.52,8.94,8.73.11,1.65.09,3.31.13,5-.24,4.48,1.55,8.81,1,13.31a48.13,48.13,0,0,1,1,10.77q.51,6.66,1,13.32.49,5.34,1,10.68c-.58,4.5,1,8.83,1,13.28.31,3.79.41,7.61,1,11.36.82,5.26-1.26,8.59-6.06,10.48l-47,.06c-5.15-1.69-6.68-5.34-6.08-10.48.44-3.78-.2-7.66,1-11.38C135.31,70.7,136.33,66.29,136.66,61.84Zm12.08,5.71c-.16-2.49-1.45-3.65-3.86-3.51s-3.94,1.37-3.84,3.62,1.11,4.32,3.9,4.14C147.51,71.64,148.58,69.9,148.74,67.55Zm.91-23.7a4,4,0,0,0-7.87.88c.11,2.57,1.67,3.32,3.93,3.35C148.52,48.12,149.33,46.33,149.65,43.85Zm36.06-22.71c0-3-1.69-3.95-3.83-4a3.66,3.66,0,0,0-4,4.06,3.6,3.6,0,0,0,3.85,3.71A3.8,3.8,0,0,0,185.71,21.14Zm-39.24-4c-2.47-.09-3.68,1.13-3.77,3.54-.08,2.16.33,4.11,3,4.23,2.42.11,4.37-1.13,4.57-3.55A3.68,3.68,0,0,0,146.47,17.12Zm40.11,27.24c-.49-2.36-1.77-4.14-4.28-3.89a3.68,3.68,0,0,0-3.59,4c0,2.81,1.66,3.68,4.16,3.66S186.26,46.53,186.58,44.36Zm.21,23.69c0-2.68-1.11-4-3.57-4s-3.6,1.34-3.54,3.74,1.33,3.94,3.56,3.95S186.68,70.05,186.79,68.05Z"/><path class="cls-3" d="M140.8,177.9q0-36.89,0-73.77l3.9,0-.18,73.64Z"/><path class="cls-3" d="M187.58,104.27l0,73.47-3.68,0-.14-73.73Z"/><path class="cls-4" d="M187.58,104.27l-3.85-.22c-.12-1.06.36-2.65-1.34-2.59-1.35.05-1.58,1.43-1.67,2.62l-4,0c-.1-1.18-.26-2.63-1.66-2.66-1.73,0-1.23,1.57-1.36,2.64l-4,0c-.12-1.19-.29-2.53-1.7-2.68-1.82-.19-2,1.33-2.2,2.68l-4,0c-.12-1.07.37-2.69-1.35-2.64-1.4,0-1.56,1.48-1.67,2.66l-4,0c-.1-1.19-.32-2.59-1.68-2.62-1.7,0-1.21,1.55-1.33,2.61h-5c0-.94.33-2.38-.8-2.49-1.82-.17-1.12,1.51-1.27,2.52l-3.9,0q-.06-3.54-.1-7.07l47-.06Q187.63,100.63,187.58,104.27Z"/><path class="cls-3" d="M140.88,250.76c-.29-22.88-.55-45.75.13-68.62,1.22.34,2.66-.22,3.72.86,0,2.31-.08,4.63-.08,6.94q-.12,30.27-.22,60.54Z"/><path class="cls-3" d="M187.61,183.22l-.15,67.37-3.47-.06q-.09-33.71-.17-67.41Z"/><path class="cls-5" d="M187.6,347.85c0,1.78,0,3.56,0,5.33l-3.81-.06-3.11,0h-3.93l-3.16.07-3.9-.12h-3.95l-3.9.12-3.16-.07h-3.93l-3.11,0-4.78.07-2.29,0-3.84-.11v-5l3.83-.16,2.32,0,4.73.05,3.18.05h3.89l3.14-.05,4.72-.06h2.35l4.72.06,3.14.05h3.89l3.17,0Z"/><path class="cls-5" d="M187.73,380.84c-.07.35-.15.7-.22,1.05l-3.67.25-3.15-.06h-3.93l-3.15.07-3.9-.11h-4l-3.9.11-3.15-.07h-3.93l-3.11,0-4.76.08h-2.33l-3.74-.26c0-.34-.09-.68-.14-1,0-1.31,0-2.62.07-3.93l3.82-.13,2.33,0,4.73.07,3.15,0h3.88l3.2-.07,3.82.1h4.08l3.83-.1,3.2.07h3.87l3.16,0,3.79,0Z"/><path class="cls-5" d="M187.64,306.9c0,1.78,0,3.56-.07,5.33l-3.74-.06-3.2,0h-3.84l-3.17,0-4.69.08h-2.41l-4.69-.08-3.17,0h-3.84l-3.2,0-4.72.05h-2.35l-3.8-.16c0-1.39,0-2.77,0-4.15l3.83-1,2.24,0c1.58,1.58,3.17,1.32,4.76,0l3.09.14h4l3.05,0,4.79-.1h2.3l4.79.1,3.05,0h4l3-.06Z"/><path class="cls-4" d="M187.61,183.22l-3.79-.1-2.9-.34c-2.51-1.34-4.92-.84-7.31.36l-3.84,0-4.06-.06-3.88.1c-2.39-1.22-4.82-1.65-7.35-.4l-2.8.3-4.81.14-2.14-.18c-1.06-1.08-2.5-.52-3.72-.86-2.18-1.31.06-2.84-.21-4.24l3.71-.16,2.43-.06,4.64.11,3.27,0h3.74l3.29,0,4.62-.07H169l4.62.08,3.29,0h3.74l3.27,0,3.68,0Z"/><path class="cls-3" d="M144.62,306.93l-3.83,1,.06-52.68,3.62.19Z"/><path class="cls-3" d="M187.64,306.9l-3.87.08.18-51.59h3.55Z"/><path class="cls-6" d="M136.66,61.84c-.33,4.45-1.35,8.86-1,13.36l-9.94-.13c-4.32-.07-6.61-2.82-6.62-6.59s2.3-6.51,6.62-6.56C129.37,61.87,133,61.86,136.66,61.84Z"/><path class="cls-6" d="M192.76,75.16c0-4.45-1.59-8.78-1-13.28,3.63,0,7.26-.1,10.88.07,3.87.18,6,2.29,6.22,6.24s-2,6.27-5.72,6.73A94.25,94.25,0,0,1,192.76,75.16Z"/><path class="cls-4" d="M187.5,255.4H184l-3.43,0-1.73-.09-5.27.1-4.53.09h-2.53l-4.54-.09-5.26-.1-1.73.09-3.42.06-4.54,0h-2.5l-3.62-.19,0-4.48,3.55-.27,2.57-.09a7.91,7.91,0,0,0,4.47.14l3.47,0,3.54,0a5.27,5.27,0,0,0,3.57-.06l4-.15a3.12,3.12,0,0,0,3.38-.13l4,.28a5.21,5.21,0,0,0,3.57.05l3.53,0,3.49,0,3.47.06C187.48,252.19,187.49,253.79,187.5,255.4Z"/><path class="cls-6" d="M138.67,37.85c-1.44,4.31.06,9.06-2,13.28-2.32,0-4.65,0-7-.09-4.4-.24-7.22-2.95-6.83-6.85s2.54-6.35,6.85-6.28C132.7,38,135.68,37.87,138.67,37.85Z"/><path class="cls-6" d="M190.77,51.2q-.5-6.66-1-13.32c3.14,0,6.28,0,9.42.08,4.08.16,6.12,3,6.14,6.48A6.24,6.24,0,0,1,199.19,51C196.4,51.23,193.58,51.14,190.77,51.2Z"/><path class="cls-6" d="M188.75,27.11c.59-4.5-1.2-8.83-1-13.31,2.64,0,5.28,0,7.91.16,3.83.21,5.76,2.73,5.78,6.16s-1.63,6.19-5.32,6.77A55.3,55.3,0,0,1,188.75,27.11Z"/><path class="cls-6" d="M139.86,13.9c-.75,4.37,1,9-1.16,13.19a47.55,47.55,0,0,1-6.44-.19c-3.58-.58-5.64-2.91-5.47-6.55s2-6.26,6.12-6.42C135.23,13.84,137.55,13.91,139.86,13.9Z"/><path class="cls-3" d="M140.75,312.07l3.8.16q0,17.81,0,35.63l-3.82.16Q140.74,330,140.75,312.07Z"/><path class="cls-3" d="M183.83,312.17l3.74.06,0,35.62-3.78,0Q183.82,330,183.83,312.17Z"/><path class="cls-3" d="M187.61,376.88l-3.79,0q0-11.88,0-23.78l3.81.06Z"/><path class="cls-3" d="M144.57,376.85l-3.82.13q0-12,0-23.92l3.84.11Q144.58,365,144.57,376.85Z"/><path class="cls-6" d="M183.87,442.22q0,26.32.07,52.64l-.21,16.61v82.76l.19,16.8-.09,102.81c-.49,3.15,1.08,4.21,4,4.08,4.31-.18,8.63-.21,12.94-.43,1.18-.06,2.69-.56,3.14.67a18.8,18.8,0,0,1,.25,11.23c-.7,2.68-3.72,1.53-5.72,1.54-21.8.07-43.61,0-65.42,0-10,0-10,0-9.29-10.13.19-2.94,1.17-3.49,4.06-3.15a74,74,0,0,0,12.46.09c2.22-.13,5-.4,4.29-4q-.09-51.33-.16-102.67c.06-5.66,1.21-11.37-.73-16.94,1.4-1.35.94-3.11.94-4.71q0-36.37,0-72.75c0-1.79.38-3.68-.92-5.26,1.78-5.52.9-11.15.67-16.75.09-17.54.93-35.09-.46-52.61,1-1.12.76-2.48.76-3.78q0-17.58-.06-35.14l2.31,0q.08,19.47.14,38.93,0,25.43.05,50.86-.15,8.13-.31,16.28,0,43.3,0,86.62l.31,16.19q-.1,49.41-.23,98.81c0,.17,0,.34,0,.5.07,1.8.46,3.42,2.68,3.47,2.66.06,2.17-2,2.17-3.58q0-49.15-.13-98.32.08-7.92.14-15.86,0-41.21,0-82.42c0-2.08.69-4.37-1.05-6.19,2.18-5.13.7-10.46.89-15.7q0-25.32.08-50.65,0-19.51,0-39l3.14,0q0,19.53,0,39,0,24.86.05,49.7,0,7.69-.07,15.41,0,45.42,0,90.85l0,15.84,0,99.92c.08,1.7-.75,4.11,2.24,3.9,2.54-.18,1.63-2.37,1.72-3.89q0-49.92,0-99.83c0-3.75,0-7.5.11-11.24.07-1.93-.19-3.54-2.1-4.47,2.59-.55,2.07-2.61,2.07-4.36q0-43.53,0-87.05,0-7.86,0-15.74l0-49q0-19.53,0-39.05l3.18,0q0,19.49,0,39,0,24.48,0,49c0,3.8,0,7.6-.12,11.4-.05,1.75,0,3.32,2,4-2.81,1.08-2,3.54-2,5.57q-.06,43.47,0,86.94l.15,15.11q0,49.93-.1,99.85c.09,1.69-.68,4,2.29,3.87,2.57-.11,2.58-2.05,2.45-4,0-10.81.08-21.62.05-32.43q-.08-33.66-.21-67.34L166.7,599q0-46.12,0-92.25l-.3-15.75V442.18l.15-38.94h2.37q.06,19.47.14,38.93,0,24.82,0,49.64-.16,7.53-.35,15.06,0,43,.1,86c0,2-.88,4.47,1.91,5.59a3.4,3.4,0,0,0-2,3.64c.17,4,.2,8,.28,11.94q-.09,49.89-.16,99.78c-.13,1.92-.12,3.86,2.45,4,3,.13,2.2-2.18,2.28-3.87q0-50-.08-100l.15-15.87q0-45.43,0-90.85-.07-7.68-.14-15.37,0-24.88,0-49.76l0-39,3.18,0,0,39.05,0,50.75c.33,5.24-1.3,10.6,1,15.71-1.6,1.25-1.12,3-1.12,4.63q0,41.93,0,83.85,0,7.95,0,15.89,0,50.44,0,100.89c.09,1.52-.83,3.71,1.72,3.89,3,.21,2.16-2.2,2.24-3.9l-.06-101.72q0-8,0-16.08V493.18q0-25.51,0-51l0-39,3.16,0Z"/><path class="cls-7" d="M143.65,594.2c1.94,5.57.79,11.28.73,16.94-28.82-10.83-44.89-36.68-41.53-66.81,2.43-21.8,20.53-43.43,41.49-49.6.23,5.6,1.11,11.23-.67,16.75-16.48,8.16-25.14,21.77-25.7,39.8C117.37,570.67,126.48,585,143.65,594.2Z"/><path class="cls-7" d="M183.92,611q-.09-8.4-.19-16.8a40.88,40.88,0,0,0,4.51-2.05c18-10.81,26.57-33.44,19.88-53.39-4.19-12.48-11.63-22.35-24.39-27.32l.21-16.61c19.57,6.45,32.55,19.79,38.65,39.15,7.35,23.36,1.87,44.31-14.78,62.12C201.27,603.12,193,607.84,183.92,611Z"/><path class="cls-8" d="M144.54,713.81c.67,3.57-2.07,3.84-4.29,4a74,74,0,0,1-12.46-.09c-2.89-.34-3.87.21-4.06,3.15C123.06,731,123,731,133,731c21.81,0,43.62,0,65.42,0,2,0,5,1.14,5.72-1.54a18.8,18.8,0,0,0-.25-11.23c-.45-1.23-2-.73-3.14-.67-4.31.22-8.63.25-12.94.43-2.92.13-4.49-.93-4-4.08,7.65,0,15.3.13,22.94,0,2.73,0,3.93.72,3.8,3.65-.2,4.48-.23,9,0,13.46.17,3.22-1.21,3.88-4.1,3.87q-42.4-.12-84.8,0c-3,0-4.13-.94-4-4a107.9,107.9,0,0,0,0-12.46c-.22-3.44.84-4.66,4.42-4.55C129.57,714.05,137.05,713.84,144.54,713.81Z"/><path class="cls-5" d="M154.78,403.11l-3.14,0-4.75.08-2.3,0-3.78-.19,0-4.91,3.79-.23h2.31l4.78.08,3.1,0h3.93l3.14-.06,3.92.1h3.95l3.92-.1,3.14.06h3.93l3.14-.05,3.71.18V403l-3.72.2-3.16,0H176.8l-3.18,0-4.71.09h-2.37l-4.71-.09-3.18,0Z"/><path class="cls-3" d="M183.82,403.15l3.72-.2c0,11.89,0,23.78.19,35.67.05,3-1.35,3.71-3.86,3.6Q183.84,422.69,183.82,403.15Z"/><path class="cls-3" d="M140.81,403l3.78.19q0,17.57,0,35.14c0,1.3.21,2.66-.76,3.78-2.79.29-3.25-1.29-3.22-3.67C140.77,426.64,140.77,414.82,140.81,403Z"/><path class="cls-3" d="M144.57,397.87l-3.79.23q0-8.09,0-16.17l3.74.26Q144.56,390,144.57,397.87Z"/><path class="cls-9" d="M187.54,398.1l-3.71-.18q0-7.89,0-15.78l3.67-.25Z"/><path class="cls-1" d="M148.74,67.55c-.16,2.35-1.23,4.09-3.8,4.25-2.79.18-3.81-2-3.9-4.14s1.56-3.48,3.84-3.62S148.58,65.06,148.74,67.55Z"/><path class="cls-1" d="M149.65,43.85c-.32,2.48-1.13,4.27-3.94,4.23-2.26,0-3.82-.78-3.93-3.35a4,4,0,0,1,7.87-.88Z"/><path class="cls-10" d="M185.71,21.14a3.8,3.8,0,0,1-4,3.78,3.6,3.6,0,0,1-3.85-3.71,3.66,3.66,0,0,1,4-4.06C184,17.19,185.75,18.16,185.71,21.14Z"/><path class="cls-1" d="M146.47,17.12a3.68,3.68,0,0,1,3.77,4.22c-.2,2.42-2.15,3.66-4.57,3.55-2.64-.12-3-2.07-3-4.23C142.79,18.25,144,17,146.47,17.12Z"/><path class="cls-10" d="M186.58,44.36c-.32,2.17-1.19,3.72-3.71,3.73s-4.13-.85-4.16-3.66a3.68,3.68,0,0,1,3.59-4C184.81,40.22,186.09,42,186.58,44.36Z"/><path class="cls-1" d="M186.79,68.05c-.11,2-1.32,3.66-3.55,3.66s-3.5-1.64-3.56-3.95S180.77,64,183.22,64,186.79,65.37,186.79,68.05Z"/><path class="cls-6" d="M146.94,177.68l-2.43.06.18-73.64c.15-1-.55-2.69,1.27-2.52,1.13.11.82,1.55.8,2.49Z"/><path class="cls-11" d="M183.87,177.78l-3.27,0,.12-73.73c.09-1.19.32-2.57,1.67-2.62,1.7-.06,1.22,1.53,1.34,2.59Q183.81,140.91,183.87,177.78Z"/><path class="cls-3" d="M146.94,177.68l-.18-73.61h5q-.08,36.85-.14,73.72Z"/><path class="cls-3" d="M166.49,177.7l-4.61.08q-.06-36.84-.14-73.68l4,0c1,.91.86,2.1.85,3.26Q166.56,142.53,166.49,177.7Z"/><path class="cls-3" d="M173.57,177.78l-4.62-.07q-.06-35.19-.13-70.36c0-1.17-.1-2.36.85-3.27l4,0Q173.64,140.94,173.57,177.78Z"/><path class="cls-9" d="M158.59,177.81h-3.74l-.12-73.74,4,0Q158.66,141,158.59,177.81Z"/><path class="cls-9" d="M180.72,104.08l-.12,73.73h-3.74q-.08-36.84-.14-73.69Z"/><path class="cls-11" d="M158.59,177.81q.07-36.84.13-73.69c.11-1.18.27-2.63,1.67-2.66,1.72,0,1.23,1.57,1.35,2.64q.07,36.84.14,73.68Z"/><path class="cls-11" d="M176.72,104.12q.08,36.85.14,73.69l-3.29,0q.06-36.84.13-73.68c.13-1.07-.37-2.69,1.36-2.64C176.46,101.49,176.62,102.94,176.72,104.12Z"/><path class="cls-11" d="M154.73,104.08l.12,73.74-3.27,0q.07-36.87.14-73.72c.12-1.06-.37-2.65,1.33-2.61C154.41,101.49,154.63,102.89,154.73,104.08Z"/><path class="cls-6" d="M169.67,104.08c-.95.91-.85,2.1-.85,3.27q.08,35.18.13,70.36c-.82,0-1.63,0-2.45,0l.12-70.37c0-1.16.11-2.35-.85-3.26.19-1.35.38-2.87,2.2-2.68C169.38,101.55,169.55,102.89,169.67,104.08Z"/><path class="cls-11" d="M147,250.4l-2.57.09q.1-30.28.22-60.55c0-2.31,0-4.63.08-6.94l2.14.18Q146.93,216.8,147,250.4Z"/><path class="cls-11" d="M184,250.53l-3.49.05.18-67.51.24-.29,2.9.34Q183.9,216.83,184,250.53Z"/><path class="cls-3" d="M146.9,312.23l4.72-.05v35.71l-4.73-.05Q146.91,330.05,146.9,312.23Z"/><path class="cls-3" d="M168.93,312.25l4.69-.08V347.9l-4.72-.06Z"/><path class="cls-3" d="M161.83,312.17l4.69.08,0,35.59-4.72.06Z"/><path class="cls-9" d="M176.79,312.14h3.84q0,17.89,0,35.8h-3.89Z"/><path class="cls-9" d="M154.82,312.14h3.84l0,35.81H154.8Q154.82,330,154.82,312.14Z"/><path class="cls-3" d="M151.63,376.9l-4.73-.07,0-23.64,4.78-.07Q151.64,365,151.63,376.9Z"/><path class="cls-11" d="M158.69,348l0-35.81,3.17,0V347.9Z"/><path class="cls-11" d="M176.79,312.14l0,35.81-3.14-.05V312.17Z"/><path class="cls-11" d="M154.82,312.14q0,17.89,0,35.8l-3.18-.05V312.18Z"/><path class="cls-11" d="M180.65,347.94q0-17.91,0-35.8l3.2,0q0,17.86,0,35.73Z"/><path class="cls-9" d="M180.66,376.94h-3.87l0-23.87h3.93Z"/><path class="cls-9" d="M158.66,377h-3.88q0-11.94,0-23.86h3.93Z"/><path class="cls-9" d="M165.68,377l-3.82-.1q0-11.86,0-23.73l3.9-.12Q165.72,365,165.68,377Z"/><path class="cls-11" d="M165.68,377q0-12,.07-24h3.95l.06,24Z"/><path class="cls-9" d="M169.76,377l-.06-24,3.9.12q0,11.87,0,23.73Z"/><path class="cls-6" d="M146.9,312.23q0,17.82,0,35.61l-2.32,0q0-17.82,0-35.63Z"/><path class="cls-11" d="M161.85,353.15q0,11.87,0,23.73l-3.2.07,0-23.87Z"/><path class="cls-11" d="M154.76,353.09q0,11.93,0,23.86l-3.15-.05q0-11.89,0-23.78Z"/><path class="cls-11" d="M180.66,376.94l0-23.85,3.11,0q0,11.89,0,23.78Z"/><path class="cls-11" d="M173.59,376.88q0-11.86,0-23.73l3.16-.07,0,23.87Z"/><path class="cls-6" d="M166.55,347.84l0-35.59h2.41l0,35.59Z"/><path class="cls-6" d="M146.87,353.19l0,23.64-2.33,0q0-11.85,0-23.68Z"/><path class="cls-3" d="M151.66,397.94l-4.78-.08q0-7.83,0-15.66l4.76-.08Q151.65,390,151.66,397.94Z"/><path class="cls-9" d="M165.75,398l-3.92-.1q0-7.89,0-15.77l3.9-.11Q165.74,390,165.75,398Z"/><path class="cls-9" d="M158.69,398h-3.93V382.08h3.93Z"/><path class="cls-9" d="M173.62,397.92l-3.92.1q0-8,0-16l3.9.11Q173.61,390,173.62,397.92Z"/><path class="cls-11" d="M169.71,382q0,8,0,16h-3.95q0-8,0-16Z"/><path class="cls-9" d="M180.69,398h-3.93v-15.9h3.93Z"/><path class="cls-11" d="M154.76,382.08V398l-3.1,0q0-7.9,0-15.82Z"/><path class="cls-11" d="M158.69,398v-15.9l3.15.07q0,7.88,0,15.77Z"/><path class="cls-11" d="M180.69,398V382.08l3.15.06q0,7.89,0,15.78Z"/><path class="cls-11" d="M176.76,382.08V398l-3.14-.06q0-7.89,0-15.77Z"/><path class="cls-6" d="M146.89,382.2q0,7.83,0,15.66h-2.31q0-7.85,0-15.68Z"/><path class="cls-3" d="M147,255.42l4.54,0q0,25.74.11,51.5c-1.59,1.32-3.18,1.58-4.77,0Z"/><path class="cls-3" d="M169,255.44l4.53-.09q.07,25.82.14,51.63l-4.79-.1Z"/><path class="cls-3" d="M161.92,255.35l4.54.09q.06,25.72.11,51.44l-4.79.1Q161.86,281.16,161.92,255.35Z"/><path class="cls-9" d="M154.93,255.34l1.73-.09c2.55,1.16,2.09,3.44,2.09,5.55q0,23.11,0,46.23h-4Q154.82,281.2,154.93,255.34Z"/><path class="cls-9" d="M178.79,255.25l1.73.09q.12,25.85.22,51.7h-4q0-23.11,0-46.23C176.7,258.69,176.23,256.4,178.79,255.25Z"/><path class="cls-11" d="M178.79,255.25c-2.56,1.15-2.09,3.44-2.09,5.55q0,23.11,0,46.23l-3.05,0q-.06-25.82-.14-51.63Z"/><path class="cls-11" d="M158.73,307q0-23.11,0-46.23c0-2.11.46-4.39-2.09-5.55l5.26.1q-.06,25.82-.14,51.63Z"/><path class="cls-11" d="M180.74,307q-.11-25.86-.22-51.7l3.43,0L183.77,307Z"/><path class="cls-11" d="M154.93,255.34q-.12,25.85-.22,51.7l-3.09-.14q-.06-25.75-.11-51.5Z"/><path class="cls-6" d="M166.57,306.88q0-25.72-.11-51.44H169l-.12,51.44Z"/><path class="cls-6" d="M147,255.42l-.12,51.48-2.23,0-.15-51.5Z"/><path class="cls-3" d="M147,250.4q-.06-33.6-.13-67.22l4.81-.14-.21,67.5A7.91,7.91,0,0,1,147,250.4Z"/><path class="cls-9" d="M166,250.33l-4,.15q-.11-33.66-.22-67.34l3.88-.1c0,2,.11,4,.11,6Q165.93,219.66,166,250.33Z"/><path class="cls-11" d="M166,250.33q-.09-30.66-.19-61.31c0-2-.07-4-.11-6l4.06.06c-.05,2.64-.14,5.29-.15,7.94q-.12,29.58-.23,59.16A3.12,3.12,0,0,1,166,250.33Z"/><path class="cls-9" d="M169.39,250.2q.12-29.58.23-59.16c0-2.65.1-5.3.15-7.94l3.85,0q-.12,33.68-.22,67.34Z"/><path class="cls-11" d="M161.83,183.14q.12,33.68.22,67.34a5.27,5.27,0,0,1-3.57.06c.09-21.4.14-42.8.32-64.2,0-3.18-1.55-3.59-4-3.27l-.28-.33C157,181.49,159.44,181.92,161.83,183.14Z"/><path class="cls-11" d="M173.4,250.48q.1-33.67.22-67.34c2.38-1.2,4.79-1.7,7.3-.36l-.24.29c-2.48-.32-4.06.09-4,3.27.18,21.4.23,42.8.32,64.19A5.21,5.21,0,0,1,173.4,250.48Z"/><path class="cls-11" d="M151.47,250.54l.21-67.5,2.8-.3.28.33.18,67.5Z"/><path class="cls-9" d="M154.94,250.57l-.18-67.5c2.49-.32,4.07.09,4,3.27-.18,21.4-.23,42.8-.32,64.2Z"/><path class="cls-9" d="M177,250.53c-.09-21.39-.14-42.79-.32-64.19,0-3.18,1.55-3.59,4-3.27l-.18,67.51Z"/><path class="cls-12" d="M143.65,594.2C126.48,585,117.37,570.67,118,551.28c.56-18,9.22-31.64,25.7-39.8,1.3,1.58.92,3.47.92,5.26q0,36.38,0,72.75C144.59,591.09,145.05,592.85,143.65,594.2Z"/><path class="cls-12" d="M183.73,511.47c12.76,5,20.2,14.84,24.39,27.32,6.69,20-1.86,42.58-19.88,53.39a40.88,40.88,0,0,1-4.51,2.05Z"/><path class="cls-10" d="M151.57,613q.08,49.15.13,98.32c0,1.55.49,3.64-2.17,3.58-2.22,0-2.61-1.67-2.68-3.47,0-.16,0-.33,0-.5q.12-49.39.23-98.81Z"/><path class="cls-10" d="M166.37,614.09q.1,33.67.21,67.34c0,10.81,0,21.62-.05,32.43l-4.74.1q.06-49.92.1-99.85Z"/><path class="cls-10" d="M168.92,713.86l.15-99.78,4.5-.09q0,50,.08,100Z"/><path class="cls-8" d="M166.69,506.76q0,46.13,0,92.25h-5q0-43.47,0-86.94c0-2-.82-4.49,2-5.57Z"/><path class="cls-8" d="M170.76,598.5c-2.79-1.12-1.9-3.58-1.91-5.59q-.1-43-.1-86l4.95.4q0,45.42,0,90.85Z"/><path class="cls-8" d="M146.76,595.92q0-43.3,0-86.63l3.86-.78c1.74,1.83,1.05,4.12,1.05,6.2q.07,41.22,0,82.42Z"/><path class="cls-1" d="M176.75,713.88q0-50.45,0-100.89l3.89-.84.06,101.72Z"/><path class="cls-1" d="M158.68,614.05q0,49.91,0,99.83h-4q0-50,0-99.92Z"/><path class="cls-12" d="M158.71,506.93q0,43.53,0,87.05c0,1.75.52,3.81-2.07,4.36l-2-.23q0-45.42,0-90.85Z"/><path class="cls-12" d="M180.7,509.34v86.73l-4,1q0-41.93,0-83.85c0-1.6-.48-3.38,1.12-4.62Z"/><path class="cls-10" d="M151.6,442.17q0,25.33-.08,50.65l-4.44.2L147,442.16Z"/><path class="cls-10" d="M169.1,491.81q0-24.82,0-49.64l4.53,0q0,24.87,0,49.76Z"/><path class="cls-10" d="M161.86,491.09v-49l4.53.05q0,24.42,0,48.83Z"/><path class="cls-1" d="M176.8,492.91l0-50.75h3.92q0,25.52,0,51Z"/><path class="cls-1" d="M154.81,491.85q0-24.86-.05-49.7h3.91l0,49Z"/><path class="cls-3" d="M173.58,442.14l-4.53,0q-.08-19.47-.14-38.93l4.71-.09Q173.61,422.65,173.58,442.14Z"/><path class="cls-3" d="M166.39,442.18l-4.53-.05,0-39,4.71.09Z"/><path class="cls-3" d="M151.6,442.17H147q-.06-19.47-.13-38.93l4.75-.08Q151.63,422.67,151.6,442.17Z"/><path class="cls-9" d="M158.67,442.16h-3.91q0-19.51,0-39h3.87Q158.67,422.63,158.67,442.16Z"/><path class="cls-9" d="M180.69,442.15h-3.92l0-39.05h3.86Z"/><path class="cls-7" d="M147.08,493l4.44-.2c-.19,5.24,1.29,10.57-.89,15.7l-3.86.77Q146.92,501.16,147.08,493Z"/><path class="cls-7" d="M146.76,595.92l5,1.21q-.06,7.93-.14,15.86l-4.5-.88Q146.92,604,146.76,595.92Z"/><path class="cls-7" d="M161.86,491.09l4.54-.08q.14,7.88.29,15.75l-2.93-.27c-2-.68-2.07-2.25-2-4C161.83,498.69,161.83,494.89,161.86,491.09Z"/><path class="cls-7" d="M170.76,598.5l3-.38L173.57,614l-4.5.09c-.07-4-.1-8-.27-11.94A3.4,3.4,0,0,1,170.76,598.5Z"/><path class="cls-7" d="M169.1,491.81l4.46.09q.08,7.68.14,15.37l-4.95-.4Q168.93,499.34,169.1,491.81Z"/><path class="cls-7" d="M161.74,599h5l-.33,15.08-4.48,0Z"/><path class="cls-7" d="M176.72,597.1l4-1q0,8,0,16.08l-3.89.84Q176.73,605,176.72,597.1Z"/><path class="cls-7" d="M176.8,492.91l3.9.27v16.16l-2.89-.71C175.5,503.51,177.13,498.15,176.8,492.91Z"/><path class="cls-7" d="M154.73,598.11l2,.23c1.91.93,2.17,2.54,2.1,4.47-.13,3.74-.09,7.49-.11,11.24l-3.92-.1Z"/><path class="cls-7" d="M154.81,491.85l3.89-.66q0,7.88,0,15.74l-4,.33Q154.77,499.55,154.81,491.85Z"/><path class="cls-8" d="M161.79,714l4.74-.1c.13,1.92.12,3.86-2.45,4C161.11,718,161.88,715.65,161.79,714Z"/><path class="cls-8" d="M168.92,713.86l4.73.1c-.08,1.69.69,4-2.28,3.87C168.8,717.72,168.79,715.78,168.92,713.86Z"/><path class="cls-8" d="M154.74,713.87h4c-.09,1.52.82,3.71-1.72,3.89C154,718,154.82,715.57,154.74,713.87Z"/><path class="cls-8" d="M176.75,713.88h4c-.08,1.7.75,4.11-2.24,3.9C175.92,717.59,176.84,715.4,176.75,713.88Z"/></g></g></svg>