<svg xmlns="http://www.w3.org/2000/svg" viewBox="0 0 1084.11 1300.02"><defs><style>.cls-1{fill:#fff;}.cls-2{fill:none;stroke:#fff;stroke-miterlimit:10;stroke-width:15px;}</style></defs><title>資產 1</title><g id="圖層_2" data-name="圖層 2"><g id="圖層_1-2" data-name="圖層 1"><path class="cls-1" d="M538.33,156.18a2,2,0,0,1,1.5,2.53Q502.45,272,498.45,286.28T495,321.41q.58,20.73,1.73,28.79c0,3.06-1.92,4.61-5.76,4.61a38,38,0,0,1-11.51-2.3q-6.92-2.33-6.91-10.37,0-5.76,3.45-17.27t3.46-18.43c0-5.36-1.73-9.6-5.19-12.67-3.27-2.89-10.14-5.81-20.62-8.71a2,2,0,0,1-1.37-2.35l.27-1.1a2,2,0,0,1,2.11-1.46q18.14,2.1,23.64,1.53,5.76-.58,11.52-10.37t45.45-114.13a2,2,0,0,1,2.29-1.2Zm-85.24,14.73a2,2,0,0,1,2.55-.78q36.48,18,36.47,30.93,0,13.24-6.33,17.85t-10.91-11.42a1.46,1.46,0,0,0-.07-.19q-5.62-14.49-22-33.34a1.93,1.93,0,0,1-.16-2.35Zm24.18-64.48a2,2,0,0,1,2.57-.77q30.75,15.57,33.58,23.41c1.91,5.38,2.88,9.22,2.88,11.52a15.29,15.29,0,0,1-4,10.37c-2.7,3.07-4.8,4.6-6.33,4.6q-3.45,0-6.89-11.43A1,1,0,0,0,499,144q-5.64-14.52-22.08-34.51a2,2,0,0,1-.13-2.32Zm91.59,231.64a2,2,0,0,1,2.15-1.46q32.93,4.35,36.85,3.81c2.69-.4,4-2.49,4-6.34V273.83a1.94,1.94,0,0,0-1.94-1.94H555.46a105.36,105.36,0,0,0-26.57,3.17,2,2,0,0,1-1.86-.5l-6.26-6.27a1.94,1.94,0,0,1,1.37-3.31H610a2,2,0,0,0,1.94-2,205.76,205.76,0,0,0-1.49-26.94,1.93,1.93,0,0,1,3-1.86l9.9,6.85a1.93,1.93,0,0,0,2.39-.15L653,216.54a1.94,1.94,0,0,0-1.29-3.39H582a105.82,105.82,0,0,0-26.57,3.17,1.94,1.94,0,0,1-1.86-.5l-6.26-6.27a1.94,1.94,0,0,1,1.37-3.31H657.25a1.94,1.94,0,0,0,1.26-.46L671.29,195a2,2,0,0,1,2.86.39l11.62,17a1.94,1.94,0,0,1-1.54,3q-10.25.48-23.39,8.73-14.28,9-30,19.45a2,2,0,0,0,.2,3.36l1.5.75a1.94,1.94,0,0,1,.5,3.11l-4.43,4.43a1.94,1.94,0,0,0-.57,1.38V263A1.94,1.94,0,0,0,630,265h53.69a2,2,0,0,0,1.37-.57l13-13a1.94,1.94,0,0,1,2.82.07l15.32,17.12a1.94,1.94,0,0,1-1.45,3.24H630a1.94,1.94,0,0,0-1.94,1.94v63.71q0,11.49-5.18,17.85c-3.24,3.94-9.68,7.41-19.33,10.35a2,2,0,0,1-2.45-1.32q-4.51-15.3-31.11-22.92a1.94,1.94,0,0,1-1.36-2.34ZM674.53,102.43c2,0,4,3,4,3L689.2,120.3a1.94,1.94,0,0,1-1.51,3.07q-18,.52-66.58,5.7-53.58,6.7-84.44,6.91a1.94,1.94,0,0,1-1.94-1.95v-.92a2,2,0,0,1,1.73-1.93q49.56-5.69,84.65-13.05c20.17-4.23,36.26-8.87,47.71-13.93C670.87,103.29,672.53,102.43,674.53,102.43ZM554.34,146.31h0a2,2,0,0,1,2.45-.25q21.83,14.33,25.74,21.6,4,7.5,4,12.09a15.3,15.3,0,0,1-4,10.36c-2.7,3.08-4.43,4.61-5.19,4.61q-4.61,0-8.06-13.82a90.15,90.15,0,0,0-15.11-32.06A1.93,1.93,0,0,1,554.34,146.31Zm44.95-6.94,0,0a2,2,0,0,1,2.36-.31q20.73,12.14,26.34,18.83c3.84,4.6,5.76,8.45,5.76,11.51s-1.15,6.53-3.46,10.37-4.22,5.76-5.76,5.76q-3.43,0-6.89-11.46a.36.36,0,0,0,0-.11q-5.55-15.47-18.48-32A2,2,0,0,1,599.29,139.37Zm81.6,2.93,15.67,12.19a1.94,1.94,0,0,1-.58,3.37l-6.59,2.2a2,2,0,0,0-.6.33q-21.62,17.28-36.07,30.5a2,2,0,0,1-2.93-.36l-.24-.36a2,2,0,0,1,0-2.31q23.31-31.52,28.29-44.73A2,2,0,0,1,680.89,142.3Z"/><path class="cls-1" d="M500.29,482l12.83,5.88a4.91,4.91,0,0,1,1,8.35L512,497.83a4.92,4.92,0,0,0-1.9,3.88v38.75a4.92,4.92,0,0,0,4.92,4.92h42a4.92,4.92,0,0,0,4.92-4.92V497q0-15.47-.73-30.23A4.91,4.91,0,0,1,568,462l13.19,5.5a4.9,4.9,0,0,1,1.38,8.2l-2.87,2.55a4.93,4.93,0,0,0-1.65,3.68v58.52a4.92,4.92,0,0,0,4.92,4.92h54.67a4.91,4.91,0,0,0,4.91-4.92V495.85q0-14.85-.75-31.22a4.91,4.91,0,0,1,6.88-4.73l13.52,6a4.91,4.91,0,0,1,.84,8.52L660.79,476a4.92,4.92,0,0,0-2.1,4v60.48a4.92,4.92,0,0,0,4.92,4.92h12.63a4.91,4.91,0,0,0,3.47-1.44l12.36-12.36a4.91,4.91,0,0,1,6.95,0l12.33,12.32a4.92,4.92,0,0,1-3.48,8.39H663.61a4.91,4.91,0,0,0-4.92,4.91V641c0,2.71.3,8.12.9,16.2a4.92,4.92,0,0,1-2.82,4.82l-7.21,3.36a4.91,4.91,0,0,1-7-4.45V650.49a4.91,4.91,0,0,0-4.91-4.91H583a4.91,4.91,0,0,0-4.92,4.91v11.34a4.9,4.9,0,0,1-3.09,4.56l-7,2.82a4.91,4.91,0,0,1-6.73-4.82q.74-14,.74-17.66V557.2a4.91,4.91,0,0,0-4.92-4.91H515a4.91,4.91,0,0,0-4.92,4.91V696a4.91,4.91,0,0,0,4.92,4.91H674a4.88,4.88,0,0,0,3.36-1.33l13.54-12.69a4.91,4.91,0,0,1,6.83.11l12.43,12.43a4.91,4.91,0,0,1-3.47,8.39h-193a4.9,4.9,0,0,0-3.88,1.9l-3.51,4.5a4.91,4.91,0,0,1-7,.8l-10-8.13a4.91,4.91,0,0,1-.14-7.51l3.15-2.76a4.93,4.93,0,0,0,1.68-3.7V557.2a4.91,4.91,0,0,0-4.92-4.91h-2a107.22,107.22,0,0,0-25,2.78,4.88,4.88,0,0,1-4.59-1.3h0a4.91,4.91,0,0,1,3.47-8.39h28.14a4.92,4.92,0,0,0,4.92-4.92V514.28q0-14.77-.66-27.58A4.9,4.9,0,0,1,500.29,482Zm77.78,75.21v76.55a4.92,4.92,0,0,0,4.92,4.92h54.67a4.91,4.91,0,0,0,4.91-4.92V557.2a4.91,4.91,0,0,0-4.91-4.91H583A4.91,4.91,0,0,0,578.07,557.2Z"/><path class="cls-1" d="M522,826.35a2.2,2.2,0,0,1-.22,3.48q-6.27,4.23-19.17,21.74-14.72,20-31.34,39a2.2,2.2,0,0,0,1.65,3.65h42.3a2.18,2.18,0,0,0,1.86-1,228.87,228.87,0,0,0,14.23-27.24,2.19,2.19,0,0,1,3.51-.71l13.53,12.68a2.21,2.21,0,0,1-.38,3.49q-7.32,4.56-28.08,28.93-24.69,27.78-44.8,47.3a2.2,2.2,0,0,0,1.79,3.76l58.92-7a2.21,2.21,0,0,0,1.86-2.79,142.64,142.64,0,0,0-11.08-26.85,2.21,2.21,0,0,1,.72-2.86l.36-.24a2.21,2.21,0,0,1,2.72.22q28.67,26.73,28.67,39.13c0,8.46-1.55,14-4.61,16.7s-5.37,4-6.91,4-2.67-1.51-3.43-4.51a1.62,1.62,0,0,1,0-.19q-1-6.12-3-14a2.19,2.19,0,0,0-2.52-1.64q-37.54,6.67-53.25,11.73-14.17,4.54-22.1,9.54a2.21,2.21,0,0,1-3.18-.89l-9.36-19.66a2.19,2.19,0,0,1,1-2.92q5.44-2.68,21.53-16a224,224,0,0,0,35.44-37.81,2.21,2.21,0,0,0-2.07-3.52q-13.84,2-23.58,3.89a84.6,84.6,0,0,0-22.2,8.16,2.2,2.2,0,0,1-3-1l-8.26-16.51a2.19,2.19,0,0,1,1.07-3q9-4.17,24.9-25.14,17.06-22.53,29.37-53a2.2,2.2,0,0,1,3.48-.85Zm-53.22,176.1h.68a2.19,2.19,0,0,1,2.19,2.06q1,15.84,1,25.58a65.48,65.48,0,0,1-1.73,16.7,19.1,19.1,0,0,1-5.76,9.79c-2.7,2.3-5.18,3.46-7.48,3.46a13.55,13.55,0,0,1-5.76-1.73c-2.3-1.15-3.46-2.5-3.46-4q0-4.59,5.69-11.44a1.83,1.83,0,0,0,.13-.16q7.74-11.15,12.31-38.38A2.2,2.2,0,0,1,468.8,1002.45Zm24.93-6.74.49-.32a2.2,2.2,0,0,1,2.78.29q22.92,23.24,23.49,35.56c.38,8.46-1,13.82-4,16.13s-5.38,3.45-6.92,3.45c-3.07,0-5-3.84-5.75-11.51q-1.12-15.63-10.88-41A2.22,2.22,0,0,1,493.73,995.71Zm33.66-9.38.44-.3a2.23,2.23,0,0,1,2.54.07q29.88,22.35,31,33c.76,7.31-.57,12.67-4,16.12s-5.58,5.19-6.33,5.19q-4.6,0-6.91-11.52-3.33-15.56-17.38-39.67A2.2,2.2,0,0,1,527.39,986.33Zm17.83-60.52a2.18,2.18,0,0,1,.46-2.93A236.18,236.18,0,0,0,591.32,874,199,199,0,0,0,620.5,812.9a2.19,2.19,0,0,1,3.24-1.3l17.68,10.61a2.19,2.19,0,0,1,.15,3.67l-3.84,2.74a2.22,2.22,0,0,0-.72,2.74,152.59,152.59,0,0,0,37.23,49.58q23.25,20.49,44.36,25.53a2.21,2.21,0,0,1,1.71,2.14v.72a2.2,2.2,0,0,1-2.09,2.19q-13.05.71-18.68,10.46a2.21,2.21,0,0,1-3.19.65,174,174,0,0,1-40-41.69q-15.78-22.87-23-39.92a2.18,2.18,0,0,0-3.94-.16,208.85,208.85,0,0,1-33,47Q577,908.54,548.22,926.46a2.21,2.21,0,0,1-3-.65Zm133.13,123a2.23,2.23,0,0,0-2.24-1.3q-47.16,4.5-69.82,8.49-21.31,3.72-33.73,9.91a2.19,2.19,0,0,1-2.95-1l-8.35-17.64a2.19,2.19,0,0,1,1.09-2.94q8.94-4,23.78-24a309.14,309.14,0,0,0,29-48.08,2.21,2.21,0,0,0-2-3.17H600.53a105.83,105.83,0,0,0-26.43,3.13,2.17,2.17,0,0,1-2.1-.56l-5.72-5.73a2.19,2.19,0,0,1,1.55-3.75H672.18a2.2,2.2,0,0,0,1.55-.64l11.67-11.67a2.19,2.19,0,0,1,3.06,0l16.33,15.47a2.2,2.2,0,0,1-1.51,3.79H623.92a2.2,2.2,0,0,0-1.22,4L634.63,981a2.19,2.19,0,0,1,.1,3.58q-7.56,5.57-19.23,20.14-13.66,15.78-34.08,36.37a2.2,2.2,0,0,0,1.64,3.75l89-3.14a2.2,2.2,0,0,0,1.9-3.15,280.57,280.57,0,0,0-15.82-27.4,2.21,2.21,0,0,1,.62-3l.31-.21a2.22,2.22,0,0,1,2.62.13q28.8,23.37,34.44,32.95,5.75,9.79,5.75,14.4t-5.18,10.36q-5.18,5.76-7.49,5.76t-3.45-3.45A152.73,152.73,0,0,0,678.35,1048.82ZM586.26,918.37h58.33a2.18,2.18,0,0,0,1.49-.58L658.82,906a2.2,2.2,0,0,1,3.09.1l14.59,15.45a2.19,2.19,0,0,1-1.6,3.7H619a105.7,105.7,0,0,0-26.43,3.14,2.2,2.2,0,0,1-2.1-.57l-5.73-5.72A2.21,2.21,0,0,1,586.26,918.37Z"/><polyline class="cls-2" points="790.97 1082.56 790.97 1166.48 377.84 1166.48 377.84 7.5 790.97 7.5 790.97 740.56"/><path class="cls-1" d="M825.45,790.22H792c-14,0-17.65,7.79-17.65,15.29,0,8.82,3.85,15.24,17.65,15.24h33.44v5.72H792.31c-17.61,0-22.89-9.52-22.89-21.12,0-11.2,5.77-20.92,22.27-20.92h33.76Z"/><path class="cls-1" d="M808.84,844.74v3.94H789.2c3,3,13.09,13.51,19.64,20.07v5.07l-16.43-17.05-22.33,18v-4.85L789.84,854l-4.7-5.27H770.08v-3.94Z"/><path class="cls-1" d="M808.84,888.05H770.08v-4h38.76Z"/><path class="cls-1" d="M770.08,911.59h14.41a1.9,1.9,0,0,0,1-.24l23.4-13.75v4.56c-6.46,3.72-17.26,10-20.37,11.67,3.09,1.66,13.86,8,20.37,11.94v4.3l-23.56-14.28a1.72,1.72,0,0,0-.9-.19h-14.3Z"/><path class="cls-1" d="M789.71,971.28c-10.61,0-20.18-5.8-20.18-17.87,0-11.13,8.81-17.5,19.93-17.5s19.93,6.31,19.93,17.92C809.39,964.58,801.11,971.28,789.71,971.28Zm-.08-31.18c-8.67,0-16.6,4.64-16.6,13.5,0,9.56,7.84,13.49,16.62,13.49s16.24-4.45,16.24-13.42C805.89,944.24,798.16,940.1,789.63,940.1Z"/><path class="cls-1" d="M792.86,1003.45h-5V983.08h5Z"/><path class="cls-1" d="M788.71,1042.75v-19.54H773.59v21.43l-3.51-.54v-24.8h38.76v24.42h-3.51v-20.51H792.21v19.54Z"/><path class="cls-1" d="M490.56,414.3H326.34c-3.63-3.16-8.17-9.45-8.17-21.18,0-15.39,7.82-21.42,11.14-23.29H440.65c8.48,0,15.41-10.16,15.41-22.59h0c0-12.42-6.93-22.59-15.41-22.59H15.41C6.93,324.65,0,334.82,0,347.24H0c0,12.43,6.93,22.59,15.41,22.59H254.22c2.7,2.62,11.78,12.27,11.78,23.29,0,9-6.06,17.09-9.74,21.18H159.58c-7.51,0-13.66,9-13.66,20v5.14c0,11,6.15,20,13.66,20h331c7.51,0,13.66-9,13.66-20v-5.14C504.22,423.31,498.07,414.3,490.56,414.3Z"/><path class="cls-1" d="M1071.89,1181.78H925c-3.25-2.83-7.31-8.46-7.31-19,0-13.77,7-19.17,10-20.84h99.61c7.58,0,13.78-9.09,13.78-20.21h0c0-11.11-6.2-20.2-13.78-20.2H646.8c-7.58,0-13.79,9.09-13.79,20.2h0c0,11.12,6.21,20.21,13.79,20.21H860.45c2.41,2.35,10.53,11,10.53,20.84,0,8.05-5.41,15.29-8.71,19H775.78c-6.72,0-12.22,8.06-12.22,17.91v4.59c0,9.85,5.5,17.91,12.22,17.91h18.46c5.94,3.91,13,10.43,13,19.41,0,8.59-6.46,14.93-12.21,18.88H597.84a19.83,19.83,0,0,0-19.77,19.77h0A19.83,19.83,0,0,0,597.84,1300H991.3a19.83,19.83,0,0,0,19.77-19.77h0a19.83,19.83,0,0,0-19.77-19.77H895.23c-5.49-3.71-11.25-9.77-11.25-18.88,0-9.55,6.35-15.75,12.07-19.41h175.84c6.72,0,12.22-8.06,12.22-17.91v-4.59C1084.11,1189.84,1078.61,1181.78,1071.89,1181.78Z"/></g></g></svg>