<svg xmlns="http://www.w3.org/2000/svg" xmlns:xlink="http://www.w3.org/1999/xlink" viewBox="0 0 622 622"><defs><style>.cls-1{fill:#fff;}.cls-2{fill:#808c7b;}.cls-3{mask:url(#mask);}.cls-4{fill:#3f3f3f;}.cls-5{fill:#805a39;}.cls-6{fill:#a5754a;}.cls-7{fill:#d86624;}.cls-8{fill:#f27730;}.cls-9{fill:gray;}.cls-10{fill:#fcee21;}.cls-11{fill:#b8ac18;}.cls-12{fill:#999;}.cls-13{fill:#666;}.cls-14{fill:#a55543;}.cls-15{fill:#2c6b72;}.cls-16{fill:#b3b3b3;}.cls-17{fill:#f15a24;}.cls-18{fill:#fbb03b;}.cls-19{mask:url(#mask-2);}.cls-20{fill:#a50310;}.cls-21{fill:#f26430;}.cls-22{filter:url(#luminosity-noclip);}</style><mask id="mask" x="4.73" y="15.23" width="612.73" height="601.03" maskUnits="userSpaceOnUse"><circle class="cls-1" cx="311.2" cy="311.43" r="296.2"/></mask><filter id="luminosity-noclip" x="-132.05" y="203.62" width="458.28" height="285.67" filterUnits="userSpaceOnUse" color-interpolation-filters="sRGB"><feFlood flood-color="#fff" result="bg"/><feBlend in="SourceGraphic" in2="bg"/></filter><mask id="mask-2" x="-132.05" y="203.62" width="458.28" height="285.67" maskUnits="userSpaceOnUse"><g class="cls-22"><rect x="-122.42" y="275.82" width="439.02" height="134.2" transform="translate(-113.27 55.22) rotate(-20.37)"/></g></mask></defs><title>資產 7</title><g id="圖層_2" data-name="圖層 2"><g id="圖層_1-2" data-name="圖層 1"><circle class="cls-2" cx="311" cy="311" r="311"/><g class="cls-3"><circle class="cls-4" cx="311.2" cy="311.43" r="296.2"/><rect class="cls-5" x="330.06" y="414.99" width="43.9" height="201.01"/><rect class="cls-6" x="395.65" y="369.54" width="43.9" height="240.46"/><rect class="cls-7" x="461.24" y="289.48" width="43.9" height="291.3"/><rect class="cls-8" x="526.84" y="192.9" width="43.9" height="365.67"/><ellipse class="cls-1" cx="397.72" cy="151.32" rx="175.61" ry="114.92"/><ellipse class="cls-1" cx="314.7" cy="249.72" rx="36.46" ry="38.99"/><ellipse class="cls-1" cx="278.13" cy="298.86" rx="16.42" ry="17.56"/><ellipse class="cls-9" cx="400.39" cy="227.03" rx="20.23" ry="26.32"/><path class="cls-10" d="M447.05,134.23c0,23.17-16.94,79.41-36.64,84.21a40.26,40.26,0,0,1-20.75-.46C370.83,212.51,354,156.73,354,134.23,354,107.44,376.61,90,400.89,90S447.05,107.44,447.05,134.23Z"/><path class="cls-11" d="M401,90h-.11C376.61,90,354,107.44,354,134.23c0,22.5,16.8,78.28,35.63,83.75a40.26,40.26,0,0,0,11.23,1.6H401Z"/><path class="cls-12" d="M434.68,203.61v-2.18a2.21,2.21,0,0,0-1.94-2.14,5.3,5.3,0,0,0-5.35-4.55H372.87a5.31,5.31,0,0,0-5.35,4.55,2.22,2.22,0,0,0-1.94,2.14v2.18a2.21,2.21,0,0,0,1.91,2.13v4a2.22,2.22,0,0,0-1.91,2.14v2.17a2.21,2.21,0,0,0,1.91,2.13v4.05a2.22,2.22,0,0,0-1.91,2.14v2.17a2.21,2.21,0,0,0,1.91,2.13v3a2.22,2.22,0,0,0-1.91,2.14V234a2.22,2.22,0,0,0,1.94,2.14,5.31,5.31,0,0,0,5.35,4.55h54.52a5.3,5.3,0,0,0,5.35-4.55,2.21,2.21,0,0,0,1.94-2.14v-2.17a2.22,2.22,0,0,0-1.91-2.14v-3a2.21,2.21,0,0,0,1.91-2.13v-2.17a2.22,2.22,0,0,0-1.91-2.14v-4.05a2.21,2.21,0,0,0,1.91-2.13v-2.17a2.22,2.22,0,0,0-1.91-2.14v-4A2.21,2.21,0,0,0,434.68,203.61Z"/><rect class="cls-13" x="369.97" y="200.35" width="61.08" height="4.34" rx="2.07"/><rect class="cls-13" x="369.97" y="210.84" width="61.08" height="4.34" rx="2.07"/><rect class="cls-13" x="369.97" y="221.33" width="61.08" height="4.34" rx="2.07"/><rect class="cls-13" x="369.97" y="231.82" width="61.08" height="4.34" rx="2.07"/><rect class="cls-10" x="297.99" y="121.76" width="33.85" height="8.78" rx="2.39" transform="translate(40.97 -73.94) rotate(14.31)"/><rect class="cls-10" x="321.1" y="68.36" width="33.96" height="8.78" rx="2.48" transform="translate(169.02 -228.92) rotate(48.59)"/><rect class="cls-10" x="468.52" y="122.27" width="29.68" height="8.78" rx="2.26" transform="translate(983.04 129.89) rotate(165.69)"/><rect class="cls-10" x="445.93" y="69.88" width="29.92" height="8.78" rx="2.39" transform="translate(821.45 -222.27) rotate(131.41)"/><rect class="cls-10" x="385.76" y="54.41" width="29.59" height="8.78" rx="2.22" transform="translate(459.35 -341.76) rotate(90)"/><polygon class="cls-14" points="256.59 616.26 245.99 610.89 350.21 405.13 442.98 488.45 553.01 334.45 606.14 167.09 617.46 170.68 563.77 339.83 444.92 506.17 353.8 424.33 256.59 616.26"/><path class="cls-15" d="M271.3,186.89c11.79-11,18.82-24.91,18.82-40,0-35.84-39.65-64.89-88.56-64.89S113,111.05,113,146.89s39.65,64.89,88.56,64.89a115.06,115.06,0,0,0,40.28-7.09c9.43,5,25.47,13.46,60.52,9.54C290.79,213.52,280.22,197.45,271.3,186.89Z"/><circle cx="166.46" cy="148.52" r="11.02"/><circle cx="201.15" cy="148.52" r="11.02"/><circle cx="235.84" cy="148.52" r="11.02"/><path class="cls-16" d="M169.07,600l39.63-14.72c10.05-3.74,14.29-10.88,9.42-15.87L126.53,462.85c-4.1-5.87-12.67-8.73-19-6.36l-25.12,9.33c-6.38,2.37-8.24,9.11-4.15,15l63.7,116.87C146.79,602.66,159,603.68,169.07,600Z"/><rect class="cls-17" x="14.83" y="366.59" width="130.04" height="101.95" rx="12.48" transform="translate(-140.33 53.89) rotate(-20.37)"/><path class="cls-18" d="M144.44,466.88l148.05-9.51a9.61,9.61,0,0,0,5.64-12.31l-71.9-193.69a9.61,9.61,0,0,0-12.31-5.64L95.53,335.13c-4.94,1.83-8,5.84-6.9,8.92l44.76,120.57C134.53,467.7,139.5,468.71,144.44,466.88Z"/><rect class="cls-16" x="249.91" y="215.73" width="23.93" height="266.32" rx="11.07" transform="translate(-105.05 112.94) rotate(-20.37)"/><g class="cls-19"><rect class="cls-20" x="16.65" y="371.47" width="130.04" height="101.95" rx="12.48" transform="translate(-141.91 54.83) rotate(-20.37)"/><path class="cls-21" d="M146.25,471.76l148.05-9.51a9.61,9.61,0,0,0,5.64-12.31L228,256.25a9.59,9.59,0,0,0-12.31-5.64L97.34,340c-4.94,1.84-8,5.85-6.9,8.92L135.2,469.5C136.34,472.57,141.31,473.59,146.25,471.76Z"/><rect class="cls-9" x="251.72" y="220.6" width="23.93" height="266.32" rx="11.07" transform="translate(-106.63 113.88) rotate(-20.37)"/></g></g></g></g></svg>