<?xml version="1.0" encoding="utf-8"?>
<!-- Generator: Adobe Illustrator 23.0.3, SVG Export Plug-In . SVG Version: 6.00 Build 0)  -->
<svg version="1.1" id="圖層_1" xmlns="http://www.w3.org/2000/svg" xmlns:xlink="http://www.w3.org/1999/xlink" x="0px" y="0px"
	 viewBox="0 0 936.8 190.9" style="enable-background:new 0 0 936.8 190.9;" xml:space="preserve">
<style type="text/css">
	.st0{fill:#FFFFFF;}
	.st1{enable-background:new    ;}
</style>
<title>資產 1</title>
<g>
	<g id="圖層_1-2">
		<path class="st0" d="M16.3,146c0.1-0.2,0.2-0.6,0.3-0.9C16.4,146,16.3,146.4,16.3,146z"/>
		<path class="st0" d="M18.8,134.3c-0.4,3.7-1.2,7.3-2.2,10.9c0.2-1.4,0.5-3.9,0.9-6.2S18.1,134.6,18.8,134.3z"/>
		<path class="st0" d="M14.4,146.2c0.4-1.2,0.7-2.4,1.1-3.7C15.4,144.8,14.9,144.3,14.4,146.2z"/>
		<polygon class="st0" points="15.7,145 16,145.3 15.2,147.3 		"/>
		<path class="st0" d="M135.3,122.2c-0.4-0.3-0.6-0.5-0.3-0.7L135.3,122.2z"/>
		<path class="st0" d="M143.6,126.5l1.7,0.7C144.7,127,144.1,126.8,143.6,126.5z"/>
		<path class="st0" d="M126.9,120.9c0.6,0.1,1.1,0.1,1.6,0.2C128,121,127.5,121,126.9,120.9z"/>
		<path class="st0" d="M32.1,150.5c-1.4,0.7-2.6,1.4-3.6,1.9C30.6,150.4,31.2,150.7,32.1,150.5z"/>
		<path class="st0" d="M159.1,155.8l0.2,0.4C159,156.4,158.8,156.5,159.1,155.8z"/>
		<path class="st0" d="M143.8,132.2c0-0.2,0.2-0.3,0.3-0.3l0.4,0.2L143.8,132.2z"/>
		<path class="st0" d="M120.3,121L120.3,121l-1.4-0.2C119.4,120.7,119.9,120.8,120.3,121z"/>
		<path class="st0" d="M151.9,160.6c-0.5,0-0.9-0.1-1.4-0.3C151.5,160.2,152,160.3,151.9,160.6z"/>
		<path class="st0" d="M145.5,127.3L145.5,127.3l-0.2-0.1L145.5,127.3z"/>
		<path class="st0" d="M132,128.4l1.9,0.6C133.2,128.9,132.6,128.7,132,128.4z"/>
		<path class="st0" d="M32.1,150.5l1.2-0.6C32.9,150.2,32.5,150.4,32.1,150.5z"/>
		<path class="st0" d="M14.5,156.3c-0.3,1.2-0.6,1.4-0.9,1.6C13.8,157.3,14.1,156.8,14.5,156.3z"/>
		<path class="st0" d="M240.1,95.8l0.5,0.2C240.5,95.9,240.3,95.8,240.1,95.8z"/>
		<path class="st0" d="M193,84.7c-0.2-0.1-0.4-0.2-0.6-0.3C192.7,84.3,193,84.5,193,84.7z"/>
		<path class="st0" d="M152.5,101c0.6-0.4,1.2-0.8,1.9-1.1c0.7-0.3,1.4-0.5,2.1-0.7c1.4-0.5,2.8-0.7,4-1.2h-1l1.3-0.3l1.3-0.3
			l-0.2-0.5c4.1-1.2,9.1-3,10.8-2.4l-0.7-0.8l2.3-0.1h2.3c-0.9-0.1-1.8-0.2-2.7-0.2c5-1.2,12.9-0.9,14-0.8l-0.5-0.3
			c0.8-0.1,1.6-0.1,2.4,0.1l-0.7-0.5c2,0,3.6,0,5,0s2.7,0,4,0s2.6,0.1,4.2,0.2c1.8,0.2,3.7,0.5,5.5,0.9c2.4,0.3-1.3-0.4-1.3-0.7
			c1.7,0,3.4,0.4,5,1.1c-0.5-0.9-4.3-1.3-1.4-1.4c1.9,0.7-1.2-1,2.3-0.2l1.2,1.2c2,0.3,0.6-0.7,3.6,0.1c3.4,1.3-4.5,0.1,1.1,1.6
			c1.6,0.2,3.3,0.2,4.9,0.1c1.1,0,2.1,0.1,3.1,0.2c1.3,0.2,2.5,0.6,3.7,1.1c4.8,1-1.9-2.4,4.4,0.1c-1.3-0.7-2.6-1.4-3.9-2
			c1.2,0.1,0.7-0.7,3.4,0.5c1.1,1,2.4,1.8,3.8,2.4c-2.9-1.4-1.5-1.3,0-1s3,0.5,0.4-1.1l2.1,0.8c-0.2-0.1-0.3-0.3-0.1-0.3l2.8,1
			c-1.6-0.9-5.7-2.5-3.5-2.5l4.1,1.4c-0.9-0.9,0.7-0.6,0.6-1.1c-1.9-0.9-3.9-1.9-5.8-2.8s-3.9-1.8-5.9-2.6c0.4,0.5,2.1,1.3,1.3,1.4
			c-3.4-0.8-2.5-1.4-5.7-1.9c0.4,0.3,0.8,0.6,1.2,0.8c-0.2-0.2-0.6-0.4,0.1-0.3c1.2,0.1,1.6,0.5,1.5,0.8c-0.9,0-1.8-0.2-2.7-0.6
			c-0.8-0.3-1.7-0.7-2.4-1.2c-4.1-1.1-1.1,0.8-2,0.7c-1.9-1.5-6.8-1.7-9.2-2.6l1.5,0.9c-2.6-0.1-5.3-0.6-7.7-1.5l0.6,0.6
			c-1.8-0.2-3.6-0.3-5.4-0.2c-1.6,0.1-3.2-0.3-4.5-1.2l0.4,0.4c-0.9,0-2.1,0.1-3.2,0c-1,0-2.1-0.1-3.1-0.4c0,0.2-0.4,0.5-1.1,0.5
			c-0.6-0.4-1.4-0.5-2.1-0.4c-0.9,0.1-2.1,0.3-3.4,0.3c1.8,0.2,1.2,1.1,3.1,1.2c-1.2,0.4-2.6,0.4-3.8-0.1c-1.1-0.5-2.2-0.7-3.4-0.6
			c-2,0.6,1.9,0.4,2.4,0.7c-2.6,0-5.2,0.5-7.7,1.3c-1.1,0.4-2.2,0.6-3.4,0.8c-1,0.2-2,0.2-2.9-0.1l2.1-1c-2.1,0-3.3,0.3-3,0.4
			c0.4-0.2,0.8-0.2,1.2,0c-2.6,0.9-5.3,1.5-8,1.8c-2.8,0.3-5.5,1-8,2.2c0.6,0.1,1.5-0.1,1.6,0.1c-1,0.5-2.1,0.7-3.2,0.7
			c-1.6,0.1-3.1,0.7-4.3,1.7l1-0.1c-1.3,1-2.6,1-2.5,0.8c0.2,0.3-0.3,0.8-1.1,1.4l-3.2,2.2c-1.3,0.8-2.4,1.8-3.5,2.8
			c-0.9,0.8-1.7,1.8-2.1,2.9c-0.8,0.3-1.5,0.7-2.2,1.2c-0.4,0.3-0.9,0.6-1.3,0.9s-0.9,0.7-1.3,1c-0.8,0.7-1.6,1.4-2.4,2.2
			c-0.5,0.5-1,1.2-1.4,1.8c-0.6,1.4,0,1.1,0.8,0.6s1.7-1.2,1.6-0.5c-0.7,0.7-1.5,1.4-2.3,2c-0.4,0.4-0.8,0.7-1.2,1.2
			c-0.5,0.6-0.9,1.2-1.3,1.8c-0.4-0.2,0.3-1.9,0.6-2.8c0.1-0.5,0.2-0.8-0.2-0.7c-0.8,0.5-1.5,1.1-2,1.9l-0.2,1
			c0.4-0.8,0.9-1.5,1.4-2.1c0.8-0.6,0.7-0.3,0.4,0.2c-0.3,0.5-0.5,1-0.7,1.5l-1.2,1.6c-0.4,0.5-0.7,0.9-1,1.4
			c-0.7,0.9-1.4,1.9-2,2.9c-0.5,0-0.2-0.9,0.3-1.8c0.4-0.7,0.8-1.4,1.2-2.2c-1.5,2.5-2.9,5.2-3.9,8c-1.1,2.8-2.1,5.6-3.2,8l0.5-0.4
			c-0.5,1-0.9,2.2-1.1,3.3c-0.1,0.6-0.1,1.1,0.1,1.7c0.1,0.5,0.1,0.9,0.1,1.4c-0.2,0.9-0.4,1.8-0.8,2.7c0.1,1.4,0.3,1.2,0.6,1.1
			s0.4,0,0.6,2.1c0.1,1.1-0.3,0.5-0.4,0.3c0.1,2.5,0.4,3,0.6,3.5s0.3,0.9,0.4,3.3c0.2-0.4,0.5-0.8,0.7-1.2c0.1,1.4,0.3,2.8,0.7,4.2
			c0.5,1.4,1.1,2.7,2,3.9c1.6,2.3,3.8,4.1,6.4,5.2c0-0.4-0.7-0.9-1.4-1.5c-0.4-0.3-0.8-0.6-1.1-0.9c-0.3-0.3-0.6-0.6-0.8-0.9
			c2.3,2.5,6.1,4.3,9.8,5.2c3.5,0.8,7,1.4,10.6,1.7c-0.9,0.3-0.2,0.7,0.3,1s0.7,0.7-1.4,0.9c-1-1-2.9-0.5-5.1-0.9
			c1.6,1.3,5.4,1.5,8.9,1s6.4-1.5,7.2-0.8c0.3-0.3,0.5-0.7,0.8-1c1-0.1,3.7-0.6,2.1,0.3c2.4-1.1,4.7-2.6,6.6-4.5
			c-1.6,1-3.3,1.7-5.1,2.2c-1.8,0.6-3.5,1-4.2,1.6c-1.1-0.1-0.4-0.4,0.3-0.8s1.3-0.8,0.4-0.9c0.5,0,1-0.1,1.5-0.2
			c0.3-0.1,0.7-0.2,1-0.3c0.4-0.2,0.8-0.4,1.1-0.8c0.3-0.3,0.5-0.6,0.9-1l0.8-0.7c0.3-0.3,0.7-0.5,1.2-0.9c-0.2,0.6-0.1,0.7,0.3,0.6
			c0.3-0.1,0.5-0.2,0.8-0.3c0.3-0.2,0.6-0.4,0.9-0.6c1.3-0.9,2.5-2.5,2.6-2.3c0.3-0.8,1-2,1.5-3.3c0.1-0.3,0.3-0.6,0.4-1
			s0.2-0.6,0.3-0.9c0.2-0.6,0.4-1.1,0.5-1.5c0.2-2.3-0.1-4.6-0.8-6.9c-0.8-2.5-1.9-5-3.1-7.3c0.4,0.9,0.6,1.9,0.9,2.9
			c0.1,0.9,0.1,1.6-0.2,1.6c-0.4-2.2-1.8-4.4-2.7-4.2c1.4,3.6,1.8,4,2.5,4.3c0.4,0.1,0.8,0.4,1,0.8c0.5,1,0.8,2.2,0.8,3.4l-0.4,1.5
			c-0.1,0.5-0.2,1-0.3,1.6s-0.2,1.2-0.3,1.9s-0.4,1.5-0.6,2.3c-0.2-1.7-0.6-1-1.1-1.8c1.3-1.8,1.2-4.8,0.3-7.5
			c-1-2.7-2.3-5.3-3.8-7.8c-0.3-0.7-0.4-1.4-0.3-2.1c-0.1-0.6-0.4-1.6-2.5-3.6c0.7,0.4,1.4,1,2,1.4s1.3,1.1,1.9,1.6
			c-2-1.9-2.2-2.1-2.2-2.4c0-0.2,0-0.4-0.1-0.6c-0.4-0.6-0.9-1.1-1.4-1.6c0.4,0.5,0.7,1.1,1,1.6c-1.1-0.9-1.9-1.4-2.5-1.9
			c-0.6-0.5-1.2-1-1.7-1.6c0.5,0.7,1,1.4,1.5,2.1c-0.7-0.4-1.6-0.9-2.3-1.3s-1.4-0.8-1.3-1.1c-0.4,0-0.6,0.1-0.7,0.3
			c-0.6-0.6-1.4-1-2.3-1.2c0.8,0.5,1.5,0.7,1.4,0.9c-2.8-1.3-3.2-1.1-3.4-0.9s-0.1,0.6-1.8-0.1c0.5,0.4-0.6,0.3-1.9,0
			c0.3-0.7-1.3-1.7-3.3-2.7s-4.2-1.8-5.1-2.4l0,0c-1.6-0.6-3.3-1.2-5-1.6c1,0.3-0.2,0.5-1.7,0.4h0.3c-0.8,0-0.4,0.5-0.4,0.8
			s-0.3,0.5-2.7,0l-2.6-0.7c0.5,0.1,0,0.3-0.3,0.4c-0.9-0.2-1.8-0.4-2.7-0.5c-2,0.5-4.1,0.7-6.1,0.6c-2.1-0.1-4.3,0.1-6.3,0.7
			c1.3-0.3,3.3-0.5,2.6,0c-1,0.3-2,0.4-3,0.3l0.3,0.1c-3,0.2-6,0.3-9,0.6c0.8,0.4,5.7-0.4,3.6,0.5c-1.2,0.9-3.8,0.6-5.4,0.9
			c0.1-0.4,3-1.3,0-1c-0.3,0.3-3.1,1.2-1.7,1.2c-3.1,0.2-7.5,0.8-10.3,0.8c-0.8,0.4,0.6,0.2,1,0.2l0.2-0.2c1.9-0.2,0.5,0.9,4-0.2
			c0.6,1.2-5,1.4-8.1,2.4c1.7-0.1,3.4-0.2,5.1-0.3c-4.4,1.8-9,3.2-13.6,4.1c-4.6,1-9.2,2.3-13.7,3.8c2.2-1.3,4.3-1.6,3.7-2.4
			c-3.2,0.8-6.3,1.8-9.4,3.1l0.4-0.1c-1.3,0.8-2.7,1.4-4.1,1.9c-1.2,0.4-2.3,1.1-3.3,2c1.3,0,3.3-2.2,3.8-1.2c-2,1-4,1.9-6,3
			c1.5-0.4,2.9-1,4.3-1.7c0.8-0.4,1.5-0.8,2.3-1.2s1.4-0.7,2-0.9c1.7-0.8-3.5,1.3-3,0.4c2-1,4.1-1.7,6.3-2.1
			c1.4-0.2,2.9-0.3,4.3-0.3c2,0.1-2.2,1.7-3.3,2.1c-2.4,0.2-4.8,0.8-7,1.7c-1.3,0.5-2.6,1.1-3.8,1.8c-1.3,0.7-2.5,1.5-3.7,2.4
			l-2.4,2.5c-1,0.3-2,0.4-3,0.3c-0.9,0.1-2,0.3-4.1,2.1l1.7-0.5c-0.6,0.7-1.2,1.3-1.9,1.8c2.2-1.1,4.6-2.1,6.6-2.8
			c-0.9,1.4-2.8,2.5-5,3.6c-2.2,1.1-4.3,2.3-6.4,3.6c0.3,0,1.6-1,2.1-1c-5.1,4.4-11.3,8.2-15.1,12c-1.1,2,3.3-2.9,3.2-1.5
			c-2.2,1.8-3.7,4.5-4.8,4.6c1.6-0.2-4.1,4.8,0.2,1.6c-4,5.1-8.3,10.3-12.1,16l0,0c1.9-3.1,3.7-6.2,5.4-9.4
			c-0.5,0.3-0.8,0.2-0.8-0.3c-1.3,3.1-3.8,7.4-5.4,8.7c0.5-2.2,3.1-4.3,3-5.1c-0.8,0.9-1.7,2.9-2.3,2.7c0.8-2.9,2.3-3.9,3.2-5.8
			l-0.2,1.1c0.9-1.5,1.9-2.9,3.2-4c0.7-0.7,1.3-1.6,2.4-4.8c0.2-2.5-0.5-0.2-1.4-0.4c0.9-1.4,1.7-6.5,3-7.8
			c-0.4,1.3-0.8,2.6-1.2,3.9c1.2-2.6,2-5.2,2.8-7c-0.3,0.2-0.6,0.5-0.7,0.8c0.9-2.1,1.6-4.9,2.4-5.9l-0.7-0.8
			c0.1,1.4-0.9,5.4-1.6,5.9c-0.6-0.6,0.9-4.4,1.3-6.2c-0.7,2.5-1.7,5-2.9,7.3c-0.4,0.8-0.8,1.6-1.2,2.6c-0.5,1.2-0.9,2.5-1.2,3.7
			l0.6-1c-0.7,4.2-3.3,7.8-4.7,11c0.2-1,0-1.3-0.3-1C3.4,178,1.8,181.6,0,185l3.9,2.1c2.1-3.7,4.6-7.3,7.3-11.1l2.4-1.6l-0.4-0.6
			c2.6-3.6,1.3-0.1,3.1-2.3c-0.7,0.8-0.7,0.6-0.9,0.6c2-1.7,2.3-2.3,2.5-2.8s0-0.8,1.1-1.8c-0.9,0.5-1.8,1.2-2.5,1.9
			c-0.8,0.7-1.3,1.2-1.3,0.4c1-0.9,2.1-1.9,3.2-2.9s2.2-2,3.3-2.9c2.1-1.8,3.9-3,4.7-2.7c3.5-3.6,7.5-6.8,11.7-9.6
			c3.9-2.5,8-4.8,12.1-6.8c0.8-0.7-0.7,0.1-0.4-0.3c1.6-0.3,3.8-1.6,5.8-2.6c0.8-0.5,1.7-0.9,2.6-1.3c0.7-0.3,1.2-0.4,1.3-0.2
			c0.8-0.5,1.5-1.2,2-1.9c2.3-0.4,4.6-1,6.9-1.7c-0.6,0.1-1.3,0.3-1.9,0.4l0.2-0.2c0.9-0.2,1.8-0.4,2.7-0.5l-0.1,0.1
			c6.2-1.8,13.3-3.9,19.3-4.3c-3.4,0.2,0.6-1.2-1-1.2c3.2,0.6,10.2-0.7,15.9-1.8c-0.1-0.3,0.3-0.6-0.4-0.7h3.4l-0.5-0.3
			c3-0.6,6-0.9,9-1c2.6-0.1,5,0.1,6.9-0.1c-0.7,0-1.4-0.2-2-0.4c-0.2-0.1-0.4-0.3-0.5-0.6c4.3,0,8.6,0.6,12.7,1.9
			c-0.2-0.1-0.4-0.3-0.4-0.4c1.4,0.3,2.7,0.7,3.9,1.3l0.3-0.6c2.4,0.9,5.6,1.6,8.2,3.1c0.7-0.1,2.3,0.6,4.2,1.7
			c1,0.5,1.7,1.1,2.5,1.6s1.5,1,2.1,1.5c0.8,0.9-1.6-2.2,1-0.1c-0.3,0.7,0.5,1.4,1.2,2.1c0.3,0.3,0.6,0.7,0.9,1.1
			c0.2,0.3,0.1,0.7-0.1,1c0.4,0.3,0.7,0.6,1.1,0.9l1,1c-0.1,0.3-0.3,0.6-0.4,0.9c0.5,0.2,0.9,0.6,1.2,1.1c0.2,0.5,0.3,0.9,0.3,1.4
			c0,0.5,0,1.1,0,1.6c0,0.3,0,0.6,0.1,0.9c0,0.2,0.1,0.3,0.1,0.5c0,0.2,0.1,0.4,0.1,0.5c0.2-0.2,0.2-0.5,0.3-0.4
			c0,1-0.3,3.1-0.6,1.5c0,1.2-0.3,2.3-0.7,3.4c-0.4,1-0.6,1.7,0.2,0.9c-0.4,0,0.7-1.8,0.9-2.7c0.2,0,0.2,0.2,0.3,0.5
			c0.1,0.3,0.1,0.6,0,0.9c-0.1,0.3-0.1,0.7-0.1,1c-0.1,0.3,0,0.6,0.1,0.8c-0.2,0.1-0.4,0.3-0.6,0.5c0.1,0.2,0.1,0.4,0.2,0.5
			c-1,1.1-2.1,2-3.4,2.8c-1.2,0.8-2.6,1.1-4.1,1.1c-0.1,0.2-0.6,0.6-1.8,0.8l-0.2-0.8c-1.2,0.3-2.5,0.4-3.7,0.5
			c0.6,0.4,1.3,0.7,1.9,1.1c-1.9,0.3-3.9,0.2-5.8-0.3c-1.8-0.4-3.4-1-5.1-1.5c-0.6,0.6-2.3,0.1-4.1-0.6s-3.8-1.8-5.3-2
			c0.7,0.6,1.4,1.1,2.2,1.5c-1.8-0.9-3.5-1.9-5.2-3c-1.4-0.9-2.4-2.3-2.9-3.9c0.3,0.6,0.7,1.2,1.2,1.7c0.2,0.2,0.4,0.4,0.6,0.6
			c0.2,0.2,0.4,0.4,0.7,0.6c1.6,1.2,3.4,2.1,5.3,2.5c-1.3-0.5-2.6-1.2-3.7-2.1c-0.9-0.7-1.6-1.6-2.2-2.6c-0.4-0.9-0.7-1.8-0.9-2.7
			c-0.3-1.2-0.5-2.7-0.9-4.5c-0.3,0.5-0.3,2.3-0.8,0.6c0.1-1.1,0.1-2.3,0-3.4c0-1,0.1-1.8,0.5-1.4c-0.1-1.7-0.8-2.2-0.7-3.4
			c0.9-2.1,1.9-4.1,3.1-6l-0.2,0.1c0.7-2.8,1.8-5.5,3.3-8c0.7-1.2,1.6-2.3,2.4-3.5s1.8-2.2,2.7-3.2c4-4,8.2-7.7,12.6-11.3l-0.5-0.2
			c0.9-0.4,1.8-0.8,2.8-1.2c-2.2,0.9,0.5-1,0.5-1.4c1.1-0.6,2.4-1,3.5-1.6s2.4-0.9,3.6-1.3C154.9,100.6,154.1,99.9,152.5,101z
			 M149.9,161.6c0.6-0.1,1.1-0.2,1.6-0.3c0.3-0.1,0.7-0.2,1-0.3l-1,0.3C150.7,161.6,150.2,162.1,149.9,161.6L149.9,161.6z
			 M29.5,158.1c-1,0.3,0.9-1,1.4-1.4c-0.8,0.6-1.6,1.3-2.4,1.9C28.3,159.1,29.1,158.3,29.5,158.1z M151.1,166.9l-1,0.8l-1.5-0.2
			C149.4,167.3,150.3,167.1,151.1,166.9z M123.7,162.2l1.2,0.9l1.2,0.8h-0.3c-0.8-0.5-1.6-1.1-2.3-1.7H123.7z M121.3,134.7
			c-0.1,0.1-0.2,0.3-0.3,0.4C121.1,134.9,121.2,134.8,121.3,134.7c1-1.7,0.4-2.8,2-3.9C123.2,132.9,122,133.7,121.3,134.7z
			 M141.4,163c0.6,0.2,1.2,0.2,1.9,0.2c-0.4-0.3-2.1-0.9-0.8-1c0.8,0.5,3.7,0.5,3.7,1C143.7,162.7,141.8,164.2,141.4,163z M143,131
			l0.6,0.2l-2.2-1.2L143,131z M132.1,127.3c-1.2-1-4.7-1.5-7.1-1.9c-0.7,0.6,1.7,1.5,4.4,1.9C132.7,128.5,130.9,126.7,132.1,127.3
			L132.1,127.3z M123.1,157.4l0.1,0.8l-0.5-0.4c0.5,0.6,1.1,1.3,1.8,1.8c-1.3-0.6-2.5-1.6-3.2-2.9c-0.4-0.9-0.8-1.8-1-2.8
			c0.3,0.9,0.7,1.8,1.3,2.7C122.3,157.7,123,158.2,123.1,157.4L123.1,157.4z M108,126.9c-2.5,0-7.1,0.2-6.8-0.4c0,1,3.7,0.8,4.8,0.6
			C106.7,127,107.4,126.9,108,126.9L108,126.9z M107.9,125.1c3.7-0.1,4,0.3,6.8,0.7c-3.4,0.9-4.7-0.1-4.3-0.7c-2.6,0-2,0.5-3.3,0.8
			L107.9,125.1z M112,127.1l1.4-0.4c0.8-0.3,1.3-0.8,1.8-1c0.3-0.1,0.7-0.2,1-0.2c0.5,0,1,0.2,1.4,0.4c-0.7,0.1-1.4,0.2-2.1,0.4
			s-1.4,0.3-2.1,0.5C113,127,112.6,127.1,112,127.1L112,127.1z M82.2,132.9h1.5C82.3,133.2,82.1,133.1,82.2,132.9h-1.3
			C84,131.8,82.4,132.5,82.2,132.9z M104.9,128l4.3-0.6C108.8,127,106.2,127.7,104.9,128z M82.9,131.8c1.7-0.5,6.3-1.7,5.7-1.4
			C88.3,130.9,84.1,131.8,82.9,131.8L82.9,131.8z M5.8,181.5l1.5-2.2l-0.2,1.5L5.8,181.5z M26.4,157.5l-0.3,0.7
			c-0.4,0.3-0.8,0.7-1.2,1C25.4,158.6,25.9,158,26.4,157.5z M50.5,141c-0.1,0.2,0.1,0.3,0.4,0.4c0.3-0.1,0.7-0.2,1-0.2
			c-0.3,0.2-0.7,0.2-1,0.2c-1.2,0.4-2.3,1-3.2,1.8c1-0.3,1.9-0.6,2.8-0.9c-0.6,0.5-1.3,0.9-2.1,1.2c-0.8,0.4-1.7,0.7-2.5,1
			c-1.5,0.6-2.4,1.1-1.1,1.7c-1.1,0.4-4.7,1.9-3.8,0.8C43.7,145.4,48.6,142.3,50.5,141c0.1-0.2,0.3-0.4,0.7-0.7
			C51.1,140.6,50.8,140.8,50.5,141z M88,128.2c0.6-0.1,1.2-0.2,1.8-0.2c1,0,1.7,0.1,1.5,0.4c-2.3,0.2-0.9-0.4-1.5-0.4
			C89.2,128,88.6,128.1,88,128.2z M94.8,126.6l-3.7,0.3L93,127c-1.9,0-3.7,0.1-5.6,0.2C90.5,126.1,94.2,126.1,94.8,126.6L94.8,126.6
			z M96,126l0.8,0.4l-1.3-0.4H96l-0.2-0.1c2-0.3,4.1-0.5,6.1-0.8L96,126z M156.2,134.6c1.5,0.1,0.7-1.1-0.7-2.4
			c-0.7-0.6-1.6-1.3-2.3-1.8c-0.6-0.3-1.2-0.8-1.6-1.3c-0.3,0.2-1,0.4-1,0.7c0,0.2,0.2,0.4,0.7,0.8s1.4,0.8,2.7,1.7
			c-1.2-0.6-2-0.9-2.5-1.3c-0.4-0.2-0.7-0.5-1-0.8c-0.4-0.4-0.7-0.6-2.4-0.4c1.9,0.7,3.6,1.7,5.1,2.9c-0.8-0.5-1.7-0.9-2.5-1.3
			c0.5,0.9,1.5,1.2,2.6,1.6c0.6,0.2,1.1,0.4,1.6,0.7C155.4,133.8,155.8,134.1,156.2,134.6L156.2,134.6z M159.9,161.9
			c-1,0.8-2.1,1.5-3.2,2c1.1-0.5,2.2-1.1,3.2-1.8L159.9,161.9z M131.4,110.6c-0.6-0.1,2.4-4.3,3.9-4.5
			C133.5,107.9,131.6,109.9,131.4,110.6z M166.3,90.1c-1.4,0.3-2.9,0.6-4.3,0.9c0.5-1.2,3.7-1.1,5.7-1.7
			C168.5,89.5,166.9,89.6,166.3,90.1z M194.3,87.2l1.4,0.3l-1.4-1.1L194.3,87.2z M192.4,85.8c0.9-0.4-2.1-0.7-2.8-0.7
			C190.5,85.4,191.4,85.6,192.4,85.8L192.4,85.8z M218,88.3c-0.6-0.1-1.2-0.2-1.8-0.3l1.4,1.2L218,88.3z M214.9,88.7
			c-0.1-0.4-0.1-0.7-0.6-1.1s-1.4-0.7-3.6-0.8c-0.3,0.6,0.8,0.8-0.8,1.3c1,0.2,2.1,0.4,3.2,0.4c-0.9-0.3-2-0.2-2.2-0.7
			C212.3,87.8,213.6,88.1,214.9,88.7c0.1,0.3,0.4,0.6,0.8,0.7C215.7,89.2,215.4,89,214.9,88.7L214.9,88.7z M199.8,87.1
			c-0.4,0-0.9,0.1-1.3,0.2l-0.2-0.2C198.8,86.9,199.4,86.9,199.8,87.1c0.6,0,1.3,0,2,0c0.5-0.5-2.3-1.2-3-1.6c1.4,0.3,2.5,1,4.3,0.8
			c-0.2-0.2,0-0.3-1.1-0.4c0.9,0,1.7,0.1,2.5,0.2c2.7,1.2,0,1-2.7,1c-0.1,0.1-0.3,0.2-0.8,0.3C200.6,87.4,200.2,87.3,199.8,87.1
			L199.8,87.1z M219.2,91.7l-1.3-0.5c-0.6-0.4-0.1-0.5-0.3-0.7C219.1,91,221.1,91.8,219.2,91.7L219.2,91.7z M141.8,102.8
			c0.6-0.7-1.5,0-2.9,1.4l0.3-1.3c0.4,0.4,3.6-2.1,4-2.3c0.5,0.1,0.4,0.3,0,0.7C142.7,101.7,142.2,102.2,141.8,102.8L141.8,102.8z
			 M147.4,165.8c0.4,0.5,1.9,0.5,3.4,0.2s3-0.8,3.6-0.9c-1.6,0.7-3.3,1.2-5,1.4C147.7,166.6,146.6,166.4,147.4,165.8L147.4,165.8z
			 M155.7,163.3c1.2-0.6,1.5-0.9,1.6-0.3c0.7-0.1,1.4-1,2.1-1.2c-0.5,0.7-1.2,1.1-2,1.3C156.8,163.1,156.3,163.1,155.7,163.3
			c-0.3,0.1-0.7,0.3-1.1,0.4C154.9,163.5,155.3,163.4,155.7,163.3L155.7,163.3z M117.3,142c0.3-0.6,0.6-1.1,1-1.7
			c0.1-0.9,0.3-1.8,0.4-2.7C118.1,139,117.7,140.5,117.3,142z M131.3,115.4c-0.3,0,0.1-0.7,0.7-1.4c0.5-0.6,1-1.1,1.6-1.5
			c-0.6-0.3-2,1.4-3.2,2.8c-0.3,0.3-0.6,0.5-0.8,0.8c0.3-0.2,0.5-0.5,0.8-0.8c0.5-0.4,0.5,0.1,0.6,0.3l-0.4,0.8l1.6-1.8L131.3,115.4
			z M177.6,91.5c1.1-0.5,2.3-0.6,3.5-0.5C180,91.4,178.8,91.5,177.6,91.5L177.6,91.5z M123.1,129.1c1.2-3-1.5,1-0.8-1
			c-0.2,0.5-0.5,1.1-0.7,1.6c0.6-2.8,1.5-1.5,2.2-3.3l-0.5,1.2c0,1.2,1.3-1.6,1.8-1.6C124.6,127.4,122.7,130.3,123.1,129.1
			L123.1,129.1z M180.7,91.5c3.2-0.9,2.7,0.4,4.6,0.4C182.9,92.6,183.2,91.4,180.7,91.5L180.7,91.5z M135.9,113.5l-0.1,0.2
			c0.6-0.6,1.3-1,2-1.6l0.2-0.2C137.3,112.5,136.6,113,135.9,113.5L135.9,113.5z"/>
		<path class="st0" d="M184.5,85.3c0.6-0.1,1.3-0.1,1.9-0.1C185.7,85.2,185.1,85.3,184.5,85.3z"/>
		<path class="st0" d="M164.9,160.6c-0.1-0.2,0.1-0.5,0.2-0.9C165.2,159.8,165.1,160,164.9,160.6z"/>
		<path class="st0" d="M167.9,153.3c0-0.1,0-0.2,0-0.3l0.1-0.3C167.9,152.9,167.9,153.1,167.9,153.3z"/>
		<path class="st0" d="M14.7,158.4c1.1-1.2-0.3,1.4-0.6,2.4C14.4,159.8,14,159.2,14.7,158.4z"/>
		<path class="st0" d="M10.8,166.6c0.5-0.8,1-1.6,1.3-2.5C11.8,165,11.3,165.8,10.8,166.6z"/>
		<path class="st0" d="M13.3,159.8c-0.3,1.5-0.7,2.9-1.2,4.3C12.4,162.6,12.8,161.2,13.3,159.8z"/>
		<path class="st0" d="M3,183.6c-0.6,0.6-1.2,1.4-1.6,2.1l1.2,0.7c0.4-0.7,0.6-1.3,0.6-1.3c-0.3,0.6-0.5,1.1-0.5,1.4l-1.3-0.7
			c0.6-1.3,0.2-1-0.4-0.2l2.2,1.2c0.6-0.9,1.2-1.7,1.9-2.6c-0.5,0.9-1.1,1.8-1.8,2.6l-2.4-1.4C1.5,184.7,2,184.4,3,183.6z"/>
		<path class="st0" d="M7.5,177.2c-0.3,0.4-0.6,0.9-0.9,1.4C6.8,178.1,7.1,177.6,7.5,177.2z"/>
		<path class="st0" d="M8.4,175.2c0.8-1,1.9-1.8,3.1-2.3c-0.5,0.9-1.2,1.7-2,2.4c-0.7,0.6-1.4,1.2-2,1.9
			C8.4,176,9.2,174.9,8.4,175.2z"/>
		<path class="st0" d="M56.6,134.7c-0.5,0.1-1.5,0.5-1.7,0.3l3.2-1.3C59.5,133.4,57.2,134.4,56.6,134.7z"/>
		<path class="st0" d="M69,131.7c2.6-0.8,1-1,2.4-1.3l0.1,1C70.7,131.5,69.9,131.6,69,131.7z"/>
		<path class="st0" d="M69.1,136.8l-0.8,0.2L69.1,136.8L69.1,136.8z"/>
		<path class="st0" d="M81.5,127.2c-0.7-0.2-1.4-0.4-2.1-0.6C81.7,126.3,81.9,127.2,81.5,127.2z"/>
		<polygon class="st0" points="91.6,124.2 89.9,124.2 94.9,123.6 		"/>
		<polygon class="st0" points="104.1,122.5 104.5,122.2 107.9,121.9 		"/>
		<path class="st0" d="M115.2,151.5c0.4-0.4,0.7,0.9,1.3,2.4c0.5,1.4,1.2,2.7,2.2,3.9c-0.8-0.1-1.5-1.2-2-2.5
			C116.3,153.9,115.8,152.7,115.2,151.5z"/>
		<path class="st0" d="M179.7,86.1c-0.9,0.1-1.8,0.1-2.7,0.2l-2.6,0.3C178.4,85.6,175.5,86.3,179.7,86.1z"/>
		<path class="st0" d="M60.4,179.5c0,0,0.1,0.1,0.1,0.1S60.3,179.6,60.4,179.5z"/>
		<path class="st0" d="M61.8,180.2c-0.5,0-1-0.2-1.3-0.6C60.8,179.6,61.9,179.1,61.8,180.2z"/>
		<path class="st0" d="M60.6,177.8l0.4,0.4C60.7,178.4,60.9,177.9,60.6,177.8z"/>
		<polygon class="st0" points="60.6,178.8 60.5,179.2 60.3,178.8 		"/>
		<path class="st0" d="M35.6,181.5c0.1,0.2,0.1,0.4,0.1,0.6L35.6,181.5z"/>
		<path class="st0" d="M34.3,179.8c-0.1,0-0.2-0.1-0.2-0.1C34.1,179.6,34.2,179.7,34.3,179.8z"/>
		<path class="st0" d="M36.5,181.3l-0.2,0.1C36.4,181.3,36.5,181.2,36.5,181.3z"/>
		<path class="st0" d="M49,179.6c0.2,0.3,0.3,0.6,0.5,0.8C49,180.7,49,180,49,179.6z"/>
		<path class="st0" d="M28.4,174.6v0.3C28.3,174.8,28.2,174.7,28.4,174.6z"/>
		<path class="st0" d="M33.5,174.5c0,0.1,0,0.3,0,0.4l-0.1-0.1L33.5,174.5z"/>
		<path class="st0" d="M37.3,180.6L37.3,180.6l0.2,0.2C37.4,180.8,37.3,180.7,37.3,180.6z"/>
		<path class="st0" d="M26.6,174.4c-0.1-0.2-0.2-0.4-0.3-0.7C26.5,173.9,26.6,174.2,26.6,174.4z"/>
		<path class="st0" d="M34,179.7L34,179.7z"/>
		<path class="st0" d="M35.3,174.7l-0.3-0.1C35.1,174.5,35.2,174.6,35.3,174.7z"/>
		<path class="st0" d="M49,179.6l-0.1-0.3C48.9,179.4,48.9,179.5,49,179.6z"/>
		<path class="st0" d="M59,180c-0.2,0-0.2-0.3-0.2-0.5C58.9,179.7,59,179.8,59,180z"/>
		<path class="st0" d="M3.1,187.8L3.1,187.8C3.1,187.8,3.1,187.8,3.1,187.8z"/>
		<path class="st0" d="M9,186.5c0.1,0.1,0.1,0.1,0.1,0.2C9.1,186.9,9,186.7,9,186.5z"/>
		<path class="st0" d="M12.2,177.5c-0.3,0.6-0.9-0.3-1.3-0.2l0.2,0.3l-0.4-0.2l0.2,0.5c-0.7-0.1-1.2,0.7-1.7-0.1l0.3,0.8l-0.8-0.5
			l0.5,0.5c-0.6,0.4-1.9,0-2,0.1l0.2,0.3c-0.1,0.2-0.2,0-0.4-0.1l0.2,0.4c-1.1,0.2-1,1.4-2.3,1.3c-0.3,0.2,0.2,0.1,0.3,0.4
			c0,0.4-0.6,0.2-0.7,0c0.4,0.7,0.8,0.3,0.6,1c-0.4-0.3,0.4,0.6-0.1,0.6L4.5,182c-0.2,0.3,0.2,0.8-0.2,0.8c-0.6-0.3,0.2-1.3-0.6-1.1
			c-0.3,0.2,0.1,2.5-0.8,2.2c-0.4,0.7,0.9,1.3,0,1.4l0.8,0.4c0,0.3,0.2,0.8-0.2,0.7c-0.3-0.3-0.7-0.7-0.9-0.7c1,0.4-0.2,1.3,0.9,2
			l-0.3,0.1c0.1,0,0.1,0.1,0.1,0.2L3,188.2c0.3,0.1,0.8,0,0.8,0.8c-0.1,0.1-0.2,0.2-0.4,0.4c0.2,0.4,0.4,0.7,0.5,1.1
			c0.3,0.1,0.5,0.2,0.8,0.3l0.9,0.2c-0.2-0.3-0.4-0.4-0.5-0.8c0.3-0.4,0.5,0.4,0.7-0.1l-0.3-0.4c0.1,0.1,0.2,0.2,0.1,0.3
			c0,0.3-0.2,0-0.3-0.2c-0.1-0.6,0.4-0.4,0.7,0c0.4-0.2-0.3-1-0.2-1.2c0.6,0.8,0.8-0.3,1.2,0l-0.4-0.5c0.1-0.8,0.6-0.4,0.9-0.2
			l-0.3-0.4c0.5-0.1,0.2-1.8,1.2-0.2l-0.2-0.3c0.2-0.2,0.4-0.7,0.7-0.2c-0.1-0.2-0.1-0.5,0-0.6c0.3,0.6,0.4,0.1,0.7-0.2
			c-0.3-0.1-0.5-1-0.8-1.1c0.2-1,0.8,0.8,1.1,0.7c0.1-0.5-0.4-0.4-0.5-0.7c0.8,0.3,0.7-2.4,1.6-0.8l-0.1,0.6
			c0.4,0.3,0.5,0.3,0.4,0.1c-0.1,0.1-0.1-0.1-0.2-0.2c0.5-1.1,1.6,0.9,2.2,0.4c-0.1-0.2-0.3-0.4-0.4-0.7c0.3-0.4,0.8,1.6,1.2,0.8
			l-0.2-0.3c0.1-0.3,0.4,0.2,0.4,0.3c-0.4-1.5,1.2-0.2,1.1-2.3c0.5,0.7,1.5,1.2,1.6,0.7c0.1-1-0.6-0.9-0.6-1.8
			c0.3-0.1,0.6,0.7,1,0.3c0.2,0.8-0.4,1.9,0.5,2.1v-0.5c-0.1,0.1-0.1,0.3-0.3,0.2c-0.3-0.4,0-0.6,0-0.8l0.9,0.1
			c0.3,0.9-0.3,0.8-0.3,1c0.6-0.3,1.1-1.8,1.9-1.4l-0.1-0.3c1,0.6,0.1-1.7,1-0.4c0.3-0.3-0.3-0.9,0.2-1.1c0.1,0,0.1,0.3,0.1,0.4
			c0.7,0.2,0.1-0.9,0.9-0.2l-0.3-0.9c0.8,0.5,1.8,2,2.4,1.5c-0.2-0.7-0.5-0.6-0.8-1.1c1,1.1,2-0.2,2.8,0.4c-0.1,0.6,0.6,1.4,0.2,2
			c-0.3-0.9-0.4-0.3-0.7-0.3c0.7,2,1.5-1.3,1.9,0.5v-0.8c0.1,0.1,0.5,0.6,0.3,0.9l0.7-0.6c-0.4-0.5-1.1-1.7-1.2-0.9
			c-0.3-0.7,0.3-0.6-0.1-1.4c0.7,1.1,0.3-0.6,0.9-0.4c-0.1,1.1,0.8,1.4,0.8,1.9c0.2-0.2,0.6,0.2,0.8,0.6c0.3,0.1,1-0.9,1.5-0.6
			c-0.4-0.4-0.6-0.9-0.7-1.4c0.3,0.4,0.6,0.3,0.5-0.5c-1.1-1.3-0.1,1.8-1,1c-0.3-0.9-0.6-1.1-1-1.3c0.1-0.5,0.1-0.9,0-1.4
			c0.8,1.8,1.4,0,2.2,0.9c0.4,0.5,0.3,1.7,0.9,1.9l-0.5,0.6c0.5-0.6,0.2,0.5,0.7,0.7l-0.3-0.6c0.3-0.2,0.4-0.1,0.6,0.4l-0.4-0.9
			c0.2-0.1,0.5-0.3,0.5,0.3c0-0.2,0-0.4,0-0.6c0,0.1,0.1,0.2,0.2,0.2c0,0,0.1,0,0.1,0c-0.1-0.1-0.2,0-0.2-0.3c0.8,0.1,0.1-1,0.6-1
			c-0.1-0.2,0-0.5,0.2-0.6c0.1,1.5,1.1,1.6,1.4,2.4l0,0l0.7,0.6c-0.1-0.1,0-0.5,0.1-0.7l0,0c0.2-0.3-0.3-1.6,0.3-1.2l0.3,0.4
			c-0.1-0.1,0-0.3,0-0.4l0.3,0.4c0.4-1.4,1,0.7,1.5,0c-0.2,0.1-0.4,0-0.3-0.4c0.1-0.2,0.3,0,0.4,0.2v-0.2c0.4,0.3,0.8,0.6,1.1,0.9
			c-0.1-0.5-0.7-0.5-0.5-1.1s0.5,0,0.7,0.1c0,0.4-0.4,0.8,0,1c0-0.2,0.4-0.6,0.2-0.9c0.4,0.4,1,0.6,1.3,1.3c0.1-0.2-0.1-0.3-0.1-0.4
			v0.1c-0.2-0.2,0-1-0.5-0.6c-0.1-1.3,0.6-0.4,1-0.6l-0.7-0.9c1.1-1.8,2.5,0.1,3.6,0.1c-0.3,0.4-0.6,0-0.5,1
			c0.7,0.5,0.6,0.3,1.2,0.5l-0.1-0.1c0.3-0.5,0.8,0.5,1-0.4c-0.1-0.6-0.5,0.5-0.5-0.6l0.8,0.1c-0.2-0.7-0.8-0.1-1.1-0.3
			c-0.2,0.1,0.5,0.2,0.3,0.9c-0.8-0.1-0.9-0.8-1.3-1.9c-0.2-0.8,0.3-0.8,0.5-0.8c0.5,1.2,1.2,1.8,2,1.3l0.5-0.8
			c0.3,0.8,0.1,2.3,0.8,2.1l-0.2-0.6c0.2-0.2,0.3-0.3,0.3-0.3c-0.3-0.5-0.6-1-0.8-1.5c0.5-1.3,1.1,0.7,1.7,1c0-0.2-0.2-0.2-0.3-0.6
			c0.9-0.3,1.7,1.4,2.3,1.6c0.3-0.5-0.5-0.4-0.3-1.3c0.3,0.4,0.8-0.3,0.8,0.5c0-1.1,0.8,0,0.2-1.1c1.3-0.4,2.6,0.8,3.8,1.6
			c0-0.3,0-0.6,0.1-0.8c-0.6-0.1-1.1-0.6-1.2-1.2c0.4-0.5,0.6,0.8,0.7,0.5c-0.1-0.3-0.4-0.3-0.3-0.9c0.5-0.6,0.6,0.3,0.8,0.5
			l-0.2,0.3c0.7,0.9,0.2,2,1.1,1.9c0.4-0.6,0.1-0.6,0.2-1.4c0.2,0.4,1-0.4,1,0.5h-0.5c0.3,0.3,0.7,0.4,0.9,0.7c0-0.2,0-0.3,0-0.5
			c0.2,0.3,0.6,0.3,0.7,0.9l0.2-0.9c-0.2,0.4-0.8,0.4-0.8-0.2c0.2-0.8,0.6-0.2,0.9-0.2c-1-0.4-0.8-1.8-1.7-1.4l0.1,0.3
			c-0.6,0.6-1-0.6-1.5-0.7c0.2-0.2,0.2-0.4,0.2-0.6c-1.2,0.5-2.1-0.1-3.4,0.2l-0.3-0.9l-0.1,0.7c-0.6,0.2,0-1-0.4-0.9
			c0.2,0,0.1,0.1,0.1,0.3c-0.6-0.8-0.4,0.6-0.8,0.3c0.1,0.8,0.7,0.3,0.5,1.3c-0.6-0.8-1.7-0.5-1.7-2.2c-1.3,0.6-2.8-0.5-3.9-0.7
			c-0.2,0.3,0.1,0.2,0,0.5c-0.4-1-1.5,0.6-1.4-0.3c-0.2,0.3-0.3,0.7-0.4,1.1c-0.2-0.3-0.5-0.6-0.9-0.7l0.3,0.2v0.1L44,175l0,0
			c-0.9-0.2-1.9,0-2.7-0.9c0.5,0.5-0.1,1,0.1,1.4c-0.2-0.9-1.1-1.5-2-1.3c-0.1,0-0.1,0-0.2,0.1c0,0.2,0,0.5,0.1,0.7l-0.5-0.5
			l0.1,0.3c-0.8,0.3-1.8-1.1-2.3-0.5c0.3,0.1,0.4,0.4,0.4,0.9c-0.6,0.1-1.3-0.1-1.8-0.3c0,0.1,0.1,0.2,0.1,0.3
			c-0.2,0.1-0.4-0.2-0.6-0.3v0.7c-0.4-0.3-0.8,0.1-1.2-0.4c-0.1,0.8-1-0.6-1.5-0.2c-0.2-0.1,0.5,0.7,0,0.7c-0.2-1.4-0.7,0-0.9-1.5
			l-0.4,0.6l-0.2-0.8c-0.2,1.5-0.6-0.6-1.2-0.1c0.1,0.2,0.1,0.2,0.1,0.3c-0.2-0.1-0.6-0.2-0.4-0.6c-0.3,0-1.4-0.2-0.8,0.6
			c-0.1-0.4,0.4-0.1,0.6,0c0.1,0.7-0.4,0.5-0.4,1.2c0-0.1-0.1-0.2-0.2-0.3v0.4c-0.7-0.7-1.1,0-1.7-0.9c0,0.2-0.1,0.4-0.3,0.4
			l-0.1-0.8l-0.6,0.1l0.5,1.2c-0.6,0.3-1.3-1-1.9-1.1c0.1,1.4-1.1-0.4-1.4,1l0.5,0.3c-0.9-0.1-0.9,0.8-1.8,0.5
			c0.6-0.5,1.1-1.1,1.5-1.8c-0.9,0.8-2-0.4-2.7,0.6c0.1,0.3,0.4,0.5,0.3,0.9c-0.3-0.7-0.9,0.2-0.9-0.7c-0.2,0.3-0.1,1.1-0.3,1.3
			l-1.2-0.8l0.1,0.2c-1.2,2.3-3.4-0.6-4.9,0.7l0.1,0.4l-0.6-0.5c0.4,0.3,0,0.6,0.1,1l-1.3-0.7C11.7,176.9,12,177.8,12.2,177.5z
			 M26.4,174.9h0.3c0-0.1,0.1-0.1,0.2,0h-0.2C26.5,175.1,26.5,175.4,26.4,174.9z M50.1,175.4c0.1,0.4-0.2,0.1-0.3,0.2l0.4,0.1
			C50.3,175.5,50.2,175.5,50.1,175.4z M27.2,180.3l0,0.6l-0.3-0.4L27.2,180.3z M23.7,181l0.4,0.3v0.1l-0.4-0.3V181z M19,177.2
			C19,177.3,19.1,177.3,19,177.2C19.1,177.3,19,177.3,19,177.2c-0.4-0.3-0.3,0.7-0.7-0.2C18.4,176.1,18.7,176.9,19,177.2z M25.3,176
			c0.1,0.1,0.2,0.1,0.3,0.1c-0.1-0.3-0.4-0.8-0.3-0.9c0.2,0.4,0.6,0.4,0.7,1C25.5,175.6,25.5,177.2,25.3,176L25.3,176z M33.8,175.3
			L33.8,175.3l0.3,0.5L33.8,175.3z M35.4,175.8c0.2,0.7,0.7,0.6,1,0.7c0-0.6-0.3-1.3-0.7-1.2C35.2,174.7,35.6,176.2,35.4,175.8
			L35.4,175.8z M22.7,177.6l0.2,0.5l-0.1,0.1l0.4,0.3c-0.3,0.8-0.9-0.4-1.2-0.6C22.3,177.8,23,178.9,22.7,177.6L22.7,177.6z
			 M38.7,175.9c0.3,0.4,1,0.9,0.9,1.5c0-1-0.5-1.4-0.7-1.4S38.8,176,38.7,175.9L38.7,175.9z M38.8,177.8c-0.5-0.4-0.5-0.9-1-1.7
			c0.5-0.4,0.6,0.8,0.6,1.3c0.3,0.4,0.3-0.2,0.4-0.3L38.8,177.8z M38.2,175.1l-0.2,0.1c-0.2,0.4-0.2,1.5-0.6,0.4l0.6-0.4
			C38,175.1,38,175.1,38.2,175.1L38.2,175.1z M42.2,175l-0.2-0.3C42.2,174.7,42.2,174.9,42.2,175l0.2,0.3
			C41.9,175.7,42.1,175.3,42.2,175L42.2,175z M39.1,175.3l-0.6-0.1C38.6,175.7,38.9,175.5,39.1,175.3L39.1,175.3z M42.1,175.9
			c-0.2,0.1-0.9,0.2-0.8,0.1C41.3,175.5,41.9,175.6,42.1,175.9L42.1,175.9z M54.4,177.8l-0.3-0.1l0.3-0.7L54.4,177.8z M50.2,177.9
			l0.1-0.3l0.2,0.1L50.2,177.9z M46.5,177.8c0-0.2,0-0.3,0-0.5c-0.1-0.1-0.1-0.2-0.1-0.3c0,0,0.1,0.1,0.1,0.3s0.4,0.1,0.5-0.1
			c0-0.3-0.3-0.3-0.4-0.5c0.4-0.8,1.1,1.6,0.9-0.7c0.1,0.3,0.6,0.9,0.4,1.3C47.4,177.2,46.8,177.4,46.5,177.8c0,0.1,0,0.2-0.1,0.2
			C46.4,178,46.4,177.9,46.5,177.8L46.5,177.8z M41.4,178.3c-0.1,0-0.2-0.1-0.2-0.2c-0.2-0.2-0.2-0.5-0.2-0.8
			c0.3,0.3,0.1,0.5,0.2,0.8C41.2,178.2,41.3,178.2,41.4,178.3L41.4,178.3z M40.5,178.4l0.5,0.4l-0.3-0.5l0.7,0.9
			C41,179.8,40.5,179.1,40.5,178.4L40.5,178.4z M40.3,178.9l-0.1-0.6L40.3,178.9L40.3,178.9l0,0.1l-0.8-0.3L40.3,178.9z M32.3,178.3
			c-0.1,1.9,0.8,1.3,1.1,2.2c0-0.6,0.2-1.7-0.6-1.6c0.6-0.7,0.5,1.2,0.8-0.4c-0.3,0.2-0.7-0.3-0.8-0.3l0.4-0.1
			C32.7,176.9,32.6,178.7,32.3,178.3L32.3,178.3z M28.3,179.1h-0.5H28.3L28.3,179.1z M16.5,181.9c0.1,0.4-0.3,1.4-0.6,0.6
			C16.2,182.3,16.5,182.3,16.5,181.9z M11.5,183.2l0.6,0.2c0.2,1-0.5,0.1-0.7,0.4C11.2,183.3,11.5,183.5,11.5,183.2L11.5,183.2z
			 M8,184.2l-0.2-0.1l0.5,0.9L8,184.2z M8.6,185.4c0,0.5,0.5,0.6,0.5,0.5L8.6,185.4z M6,187.3l0.2-0.1l-0.5-0.8L6,187.3z M6,186.2
			c0.3,0.6,0.5,1.4,0.9,0.8c-0.2-0.4-0.4-0.9-0.4-1.4c-0.2-0.1-0.3,0.2-0.3,0.3c0.2,0.1,0.2-0.3,0.4,0.2
			C6.4,186.4,6.2,186.4,6,186.2c-0.1-0.2-0.2-0.3-0.3-0.5C5.8,185.9,5.9,186,6,186.2z M7.6,184.9c0-0.1,0.1-0.2,0.1-0.3l0.1,0.1
			C7.7,185,7.6,185,7.6,184.9c0,0.1-0.1,0.2-0.2,0.3c0.1,0.6,0.6,0.8,0.8,1.1c-0.2-0.1-0.5-0.6-0.6-0.2c0.1,0.1,0.1,0.3,0.2,0.2
			l-0.3,0.2c-0.6-0.6-0.3-1-0.1-1.3c0-0.1,0-0.3,0-0.4C7.3,184.7,7.4,184.8,7.6,184.9L7.6,184.9z M4.7,184.5l0.2,0.1
			c0.1,0.2,0.2,0.4,0.3,0.6c-0.3,0-0.5-0.2-0.5-0.5C4.7,184.6,4.7,184.6,4.7,184.5L4.7,184.5z M14.7,181.2c-0.1,0.2,0.4,0.8,0.6,0.5
			l0.1,0.9c-0.1-0.5-0.6-0.3-0.7-0.4C14.3,181.5,14.6,181.8,14.7,181.2L14.7,181.2z M26.5,178.7c0.3,1,0.8,0.3,1,0.6
			C27.2,179.6,26.5,180,26.5,178.7L26.5,178.7z M27.6,178.1c0.2,0,0.2-0.1,0.3,0.4c0.1,0.2,0.2-0.1,0.3,0.1
			C28,179.2,27.9,178.3,27.6,178.1c-0.1,0-0.1,0-0.2,0C27.5,178.1,27.5,178.1,27.6,178.1L27.6,178.1z M20.6,179.3l-0.4-0.7l-0.4,0.1
			L20.6,179.3z M16.3,178.8c0.1,0.4-0.3,0.5-0.4,0.3c0.2,0.6,0.4,0.4,0.7,0.4c0.1,0,0.1,0,0.2,0c-0.1,0-0.1,0-0.2,0
			c-0.1-0.1-0.1-0.4-0.2-0.6l0.1-0.2l-0.4-0.1L16.3,178.8z M9.1,180.1c-0.1,0.5-0.2,0.4-0.4,0.3C8.6,180.2,8.8,180,9.1,180.1
			L9.1,180.1z M18.3,177.8c-0.4,0.4,0.4,0.8,0.2,1.2l0.2-0.1c-0.2,0.7-0.4-0.6-0.6-0.4l0.1-0.2c0-0.6-0.4-0.3-0.5-0.8
			C17.8,177.4,18.4,177.7,18.3,177.8L18.3,177.8z M8.6,179.9c-0.3,0.7-0.5-0.5-0.8-0.5C7.9,178.8,8.2,179.8,8.6,179.9L8.6,179.9z
			 M15.2,176.8v-0.1l-0.4-0.2v0.1L15.2,176.8z"/>
		<path class="st0" d="M9.8,185.7c-0.1,0.1-0.1,0.1-0.2,0.1C9.7,185.8,9.7,185.7,9.8,185.7z"/>
		<path class="st0" d="M29.2,182c0-0.1,0-0.2,0-0.3C29.2,181.8,29.2,181.9,29.2,182z"/>
		<path class="st0" d="M30,182.3L30,182.3L30,182.3z"/>
		<path class="st0" d="M58.6,180.7c0,0.8-0.2,0.1-0.3,0.1C58.4,180.8,58.5,180.3,58.6,180.7z"/>
		<path class="st0" d="M57.7,179.3c0,0.2,0.1,0.4,0.3,0.5C57.8,179.8,57.8,179.7,57.7,179.3z"/>
		<path class="st0" d="M58.5,179.8c-0.2,0.1-0.4,0.1-0.6,0C58.1,179.8,58.3,179.5,58.5,179.8z"/>
		<path class="st0" d="M54.6,179.1c0.1,0.5,0.5,0.3,0.5,0.3c-0.8,0.3,0,0.9,0.1,1.2C54.7,180.3,54.8,179.8,54.6,179.1z"/>
		<path class="st0" d="M53.6,178.8c0.1,0,0.2,0,0.2-0.1C53.8,178.8,53.7,178.8,53.6,178.8z"/>
		<path class="st0" d="M53.3,179.2c-0.3-0.1-0.3-0.6-0.4-1c0.3-0.3,0.5,0.5,0.7,0.6C53.5,178.7,53.3,178.7,53.3,179.2z"/>
		<path class="st0" d="M45.3,181.1c0.1,0.1,0.2,0.1,0.2,0.3h-0.4C44.9,181.3,45.2,181.1,45.3,181.1z"/>
		<path class="st0" d="M43.8,179.7c-0.3,0-0.2,0.7-0.3,0.5v-1L43.8,179.7z"/>
		<polygon class="st0" points="44,174.8 44.1,174.9 44,174.9 		"/>
		<path class="st0" d="M42.1,180.7l0.3,1.1C42.2,181.4,42.1,181.1,42.1,180.7z"/>
		<polygon class="st0" points="40.9,181.4 41.1,181.8 40.5,181.4 		"/>
		<polygon class="st0" points="39.3,180.9 39.3,181.2 38.8,180.9 		"/>
		<path class="st0" d="M22.3,182.1c-0.2-0.9,0.5-0.6,0.7-0.9C23.1,182.3,22.4,180.9,22.3,182.1z"/>
		<path class="st0" d="M10.3,185.2h0.7C10.6,185.7,10.8,185.2,10.3,185.2z"/>
		<g class="st1">
			<path class="st0" d="M320.2,165.4c-5.4-2.4-11-4.8-16.7-7.2c-5.7-2.4-11-5.5-15.8-9.1l-1.7-6.3l5.4-1.9c4.2,4.3,8.8,7.6,14,10
				c5.1,2.4,10.1,4.5,14.8,6.3l4.6-2.7c2.4-7.8,4-16.1,4.9-24.8c0.9-8.8,1.1-17.7,0.5-26.7l-7.3-30.7c4.3-7.2,9.9-13.1,16.8-17.6
				c6.9-4.5,13.4-9.8,19.5-15.8l-20-1l-8.1,1l-22.5-1c-5.4,1.8-11.3,2.7-17.6,2.7c-6.3,0-12.2,0.6-17.6,1.9l-3.6-2.7v-3.6
				c9.6-1.8,19.5-3.3,29.7-4.6c10.2-1.2,20.5-1.9,30.8-1.9l8.1,1l26.3-1c1.1,1.8,1.9,3.6,2.2,5.4c0.3,1.8,0.5,4,0.5,6.4
				c-5.4,6-11.5,11.2-18.1,15.8c-6.7,4.5-12.7,9.8-18.1,15.8v4.6c3.6,7.8,5.9,16.2,6.8,25.3c0.9,9,1.1,18.4,0.5,28.1
				c-1.2,4.7-2.3,9.5-3.2,14.4c-0.9,4.9-2.3,9.4-4.1,13.6L320.2,165.4z"/>
			<path class="st0" d="M439.7,157.3l-4.6-4.4c-1.1-7.2-2.1-14.8-3.1-22.6c-0.9-7.9-1.1-16-0.5-24.5l3.6-36.9l22.7-5.4L456,58
				l17.1-26.3H465c-7.2,0-13.4,2.1-18.5,6.4c-5.1,4.2-10.3,8.2-15.8,11.8l-3.7-2.7v-3.7l30.8-35.3h4.4l1.9,5.4l-8.1,10l8.1,0.8
				l11.7-0.8l8.1,1.9l1,5.4l-22.7,31.5l5.4,1l16.3-1.9l7.3,6.3v43.4l2.7,38l-2.7,6.4l-5.4,1.7l-7.3-5.4v-3.6l5.4-1.9l1,1l0.8-14.6
				l-2.7-20.7V71.5c-1.2-1.2-2.6-1.9-4.1-1.9c-1.5,0-3.1,0-4.9,0c-5.4,0.6-10.7,1.5-15.8,2.7c-5.1,1.2-10.4,2.4-15.8,3.6l-2.7,42.5
				l0.8,0.8l17.3-21.7l-1-0.8l-10.8,3.6l-3.6-2.7v-3.6l14.4-5.4l-3.6-11.7l5.4-1.9l5.4,11.7h3.6l8.1-0.8l1.9,6.3
				c-2.4,3.6-5.2,6.8-8.6,9.5c-3.3,2.7-5,6.2-5,10.5l0.8,0.8l13.6-3.6l1.9,5.4l-37.1,13.6l-2.7-1.9l-0.8,4.6
				c0.6,3.6,1.2,7.5,1.8,11.7c0.6,4.2,1.6,8.1,2.8,11.7L439.7,157.3z M505.6,71.5l-1.7-5.4c5.4-4.3,10.4-9.2,14.9-14.6
				c4.5-5.4,8-11.1,10.3-17.1l2.7-10h-4.6c-2.9,0.7-5.9,1.5-9,2.4c-3,0.9-6,1.6-9,2.2l-1.9-5.4c8.5-4.9,17.7-7.4,27.6-7.7
				c9.9-0.3,19.7-1,29.3-2.3l5.4,4.6v13.6c-0.6,6-1.5,11.9-2.7,17.6c-1.2,5.8-4,10.7-8.1,14.9l-11.7,4.6c-2.5-0.7-4.5-2.1-5.9-4.2
				c-1.5-2.1-2.8-4-4.1-5.8v-3.6l5.4-1.9l4.6,6.3h3.6l8.1-9l2.7-29h-8.1l-12.7,2.7c-2.4,8.5-5.7,16.5-9.9,24
				c-4.2,7.5-10,14.3-17.2,20.4L505.6,71.5z M543.6,165.4l-4.4-4.4v-2.7l0.8-24.4l-0.8-20.8h-7.3l-23.6,6.3l-3.6-2.7V113l31.7-26.3
				l-2.7-1.7l-19,4.4l-4.6-5.4l4.6-9l5.4-0.8l1.7,5.4h4.6l7.3-2.7l0.8-5.4l-0.8-1l2.7-3.6h3.6l2.7,8.1h1.9l13.6-3.6l1.7,6.3
				l-15.3,14.4v6.4l2.7,5.4c4.7-0.7,9.5-1.5,14.4-2.4c4.9-0.9,10-1,15.4-0.3l1.7,5.4c-4.7,1.8-9.8,3-15.3,3.6
				c-5.4,0.6-10.8,0.8-16.3,0.8v21.7l0.8,29.8L543.6,165.4z M538.2,104.9v-2.7l-0.8-3.6h-1.9l-8.1,6.3l3.7,0.8L538.2,104.9z"/>
			<path class="st0" d="M609.5,169.1l-3.6-2.7v-3.7c10.2-2.9,19.9-7.3,29.3-13c9.4-5.8,18-12.8,25.8-21.2l1.9-3.7
				c-1.8-2.4-4.1-4-6.8-4.9c-2.7-0.9-5.3-2-7.8-3.2l-0.8-4.4l5.4-1.9l14.4,7.3c2.5-3.6,4.3-7.4,5.5-11.4c1.2-4,2.1-8,2.6-12.2h-7.1
				c-4.3,0.6-8.4,1.6-12.3,3.1c-3.9,1.5-7.7,2.9-11.3,4.2l-3.6-2.7v-3.7c6-3.6,12.1-6.5,18.5-8.6c6.3-2.1,12.5-4.9,18.5-8.6v-5.4
				h-4.4c-5.4,1.2-10.8,2.5-16.3,3.6c-5.4,1.2-10.6,3.3-15.4,6.4l-4.6-5.4l2.7-3.7c6.1-2.4,12.3-4.3,18.6-5.8
				c6.3-1.5,12.8-2.6,19.3-3.1v-10l-0.8-4.4h-5.4c-6,1.8-11.9,3.6-17.6,5.4c-5.8,1.8-11.4,4.2-16.8,7.1l-2.7,6.4l-4.4,0.8v1.9
				c0.6,4.7,1.2,9.5,1.8,14.4c0.6,4.9,1.8,9.4,3.6,13.6l-5.4,1.9c-4.9-7.9-7.4-16.5-7.7-25.8c-0.3-9.3-1.7-18.2-4.2-26.7l2.7-3.6
				h3.7c1.8,1.8,2.9,3.9,3.1,6.4c0.3,2.4,1,4.5,2.3,6.4c6.6-4.9,13.8-8.5,21.6-10.9c7.9-2.4,16-4.2,24.5-5.3v-4.6l-1.9-5.4l2.7-5.4
				l4.6-0.8l1.7,5.4l-0.8,0.8l1.9,8.1h4.4l20-0.8l11.7,5.4c2.4,2.4,3.6,5.4,3.6,9c0,3.6,0,7.2,0,10.8l-14.4,32.5l-4.6,0.8l-1.7-3.6
				h-1.9l-2.7,0.8l-15.4-0.8c-0.6,4.9-1.6,9.7-3.1,14.5c-1.5,4.8-3.8,9.3-6.7,13.5c12.7,9,25.4,16.9,38.4,23.6
				c12.9,6.7,26.9,10.9,41.9,12.7l1,5.4c-1.8,1.8-3.9,2.5-6.4,2.2c-2.4-0.3-4.8-0.5-7.2-0.5c-12.7-3.6-25-8.6-37.1-14.9
				c-12.1-6.3-23.6-13.4-34.4-21.2c-6,8.5-13,15.4-21.2,20.8c-8.1,5.4-16.4,10.5-24.9,15.3c-2.4,0.7-4.6,1.6-6.7,2.8
				C615.1,169.4,612.6,169.7,609.5,169.1z M627.7,26.3l-3.7-2.7V20c14.5-3.1,29.5-5,45.2-5.9c15.7-0.9,31.1-2,46.1-3.2l1.9,7.3
				l-7.3,6.3h-3.6l-1.9-4.4h-13.6L627.7,26.3z M706.3,87.8v-1c2.9-5.4,5.6-10.8,8-16.3c2.4-5.4,3-11.7,1.8-19
				c-2.9-3.6-6.8-5.3-11.7-4.9c-4.9,0.3-9.7,0.5-14.4,0.5l-4.6,0.8v5.4l0.8,10.8l14.6,1.9l0.8,4.4l-15.4,10.8v4.6l19,2.7L706.3,87.8
				z"/>
			<path class="st0" d="M791.2,111.7l-3.6-2.7v-3.6c7.8-3.6,15.2-8.8,22.1-15.4c6.9-6.7,13.7-13,20.3-19l1-2.7l-10.8-8.1l-4.6-10
				l2.7-3.6h3.6c1.2,2.4,2.6,4.8,4.2,7.2c1.5,2.4,3.5,4.5,5.8,6.4l5.4,3.6c4.9-4.7,9.4-9.7,13.6-14.8c4.2-5.1,7.2-10.7,9-16.7h-3.6
				c-8.5,1.1-16.9,2.3-25.3,3.6c-8.4,1.2-16.2,4-23.5,8.1l-3.6-2.7v-3.6l33.4-30.8h3.6l1.9,6.4l-14.4,13.6l5.4,0.8l34.2-3.6l1.9,7.1
				c-3,9.7-8,18.5-14.9,26.3c-6.9,7.8-14.3,15.3-22.2,22.5c-6.6,6.1-13.2,12.1-19.8,18.1C806.2,104.1,799,108.6,791.2,111.7z
				 M827.3,166.8l-1.7-5.4c7.8-4.2,15.2-9.4,22.1-15.8c6.9-6.3,13.7-12.8,20.3-19.5c-4.2-4.7-8.7-9.4-13.5-13.9
				c-4.8-4.5-7.8-9.8-9.1-15.9l5.4-1.7l22.5,25.3c4.9-6,10.1-12,15.8-18c5.7-6,9.8-12.7,12.3-19.9h-5.4c-10.8,0.6-21.4,1.8-31.7,3.6
				c-10.3,1.8-19.9,5.4-29,10.8l-1.7-5.4l0.8-1.7c7.2-4.9,14.2-10.8,20.8-17.7s14.2-11.6,22.6-14l2.7,6.3l-1.9,3.7l-4.4,0.8
				l-1.9-0.8l-8.1,8.1l8.1,0.8l38-3.6l1.9,5.4c-4.9,12-11.7,22.9-20.4,32.9c-8.8,9.9-17.7,19.8-26.7,29.5c-6,4.7-12,9.8-18,15.3
				C841.2,161.3,834.5,165,827.3,166.8z"/>
		</g>
	</g>
</g>
</svg>
